<svg width="24" height="24" viewBox="0 0 24 24" fill="none" xmlns="http://www.w3.org/2000/svg">
<path d="M5 22C4.16667 22 3.45833 21.7083 2.875 21.125C2.29167 20.5417 2 19.8333 2 19C2 18.35 2.1875 17.7708 2.5625 17.2625C2.9375 16.7542 3.41667 16.3917 4 16.175V7.825C3.41667 7.60833 2.9375 7.24583 2.5625 6.7375C2.1875 6.22917 2 5.65 2 5C2 4.16667 2.29167 3.45833 2.875 2.875C3.45833 2.29167 4.16667 2 5 2C5.65 2 6.22917 2.1875 6.7375 2.5625C7.24583 2.9375 7.60833 3.41667 7.825 4H16.175C16.375 3.41667 16.7292 2.9375 17.2375 2.5625C17.7458 2.1875 18.3333 2 19 2C19.8333 2 20.5417 2.29167 21.125 2.875C21.7083 3.45833 22 4.16667 22 5C22 5.66667 21.8125 6.25417 21.4375 6.7625C21.0625 7.27083 20.5833 7.625 20 7.825V16.175C20.5833 16.3917 21.0625 16.7542 21.4375 17.2625C21.8125 17.7708 22 18.35 22 19C22 19.8333 21.7083 20.5417 21.125 21.125C20.5417 21.7083 19.8333 22 19 22C18.35 22 17.7708 21.8125 17.2625 21.4375C16.7542 21.0625 16.3917 20.5833 16.175 20H7.825C7.60833 20.5833 7.24583 21.0625 6.7375 21.4375C6.22917 21.8125 5.65 22 5 22ZM7.825 18H16.175C16.325 17.5667 16.5583 17.1917 16.875 16.875C17.1917 16.5583 17.5667 16.325 18 16.175V7.825C17.5667 7.675 17.1917 7.44167 16.875 7.125C16.5583 6.80833 16.325 6.43333 16.175 6H7.825C7.675 6.43333 7.44167 6.80833 7.125 7.125C6.80833 7.44167 6.43333 7.675 6 7.825V16.175C6.43333 16.325 6.80833 16.5583 7.125 16.875C7.44167 17.1917 7.675 17.5667 7.825 18Z" fill="#606A7C"/>
</svg>
