<svg width="22" height="22" viewBox="0 0 22 22" fill="none" xmlns="http://www.w3.org/2000/svg">
<rect width="22" height="22" rx="6" fill="#244B8A"/>
<path d="M9.47406 15.1895C9.23805 15.1886 9.01149 15.0967 8.84156 14.9329C8.67083 14.7611 8.575 14.5288 8.575 14.2866C8.575 14.0444 8.67083 13.8121 8.84156 13.6404L11.3807 11.0004L8.70406 8.38787C8.53333 8.21612 8.4375 7.98379 8.4375 7.74162C8.4375 7.49945 8.53333 7.26712 8.70406 7.09537C8.78928 7.00945 8.89066 6.94125 9.00236 6.89472C9.11407 6.84818 9.23388 6.82422 9.35489 6.82422C9.4759 6.82422 9.59572 6.84818 9.70742 6.89472C9.81913 6.94125 9.92051 7.00945 10.0057 7.09537L13.3516 10.2945C13.5223 10.4663 13.6181 10.6986 13.6181 10.9408C13.6181 11.183 13.5223 11.4153 13.3516 11.587L10.1432 14.9329C10.0546 15.0184 9.94974 15.0852 9.83477 15.1293C9.7198 15.1734 9.59712 15.1939 9.47406 15.1895Z" fill="#F9F9F9"/>
</svg>
