<svg width="24" height="24" viewBox="0 0 24 24" fill="none" xmlns="http://www.w3.org/2000/svg">
<path fill-rule="evenodd" clip-rule="evenodd" d="M19 21.4996H6C5.07174 21.4996 4.1815 21.1308 3.52513 20.4744C2.86875 19.818 2.5 18.9278 2.5 17.9996V4.94255C2.5 3.87555 3.556 3.19855 4.485 3.52055C4.618 3.56655 4.748 3.63355 4.872 3.72255L5.047 3.84755C5.47266 4.14958 5.98188 4.3114 6.5038 4.31051C7.02572 4.30961 7.53438 4.14604 7.959 3.84255C8.55504 3.41837 9.26843 3.19043 10 3.19043C10.7316 3.19043 11.445 3.41837 12.041 3.84255C12.4656 4.14604 12.9743 4.30961 13.4962 4.31051C14.0181 4.3114 14.5273 4.14958 14.953 3.84755L15.128 3.72255C16.121 3.01255 17.5 3.72255 17.5 4.94255V12.4996H21C21.1989 12.4996 21.3897 12.5786 21.5303 12.7192C21.671 12.8599 21.75 13.0506 21.75 13.2496V18.7496C21.75 19.4789 21.4603 20.1784 20.9445 20.6941C20.4288 21.2098 19.7293 21.4996 19 21.4996ZM17.75 13.9996V18.7496C17.75 19.0811 17.8817 19.399 18.1161 19.6334C18.3505 19.8679 18.6685 19.9996 19 19.9996C19.3315 19.9996 19.6495 19.8679 19.8839 19.6334C20.1183 19.399 20.25 19.0811 20.25 18.7496V13.9996H17.75ZM13.5 9.74955C13.5 9.55064 13.421 9.35988 13.2803 9.21922C13.1397 9.07857 12.9489 8.99955 12.75 8.99955H6.75C6.55109 8.99955 6.36032 9.07857 6.21967 9.21922C6.07902 9.35988 6 9.55064 6 9.74955C6 9.94846 6.07902 10.1392 6.21967 10.2799C6.36032 10.4205 6.55109 10.4996 6.75 10.4996H12.75C12.9489 10.4996 13.1397 10.4205 13.2803 10.2799C13.421 10.1392 13.5 9.94846 13.5 9.74955ZM12.5 12.7496C12.5 12.5506 12.421 12.3599 12.2803 12.2192C12.1397 12.0786 11.9489 11.9996 11.75 11.9996H6.75C6.55109 11.9996 6.36032 12.0786 6.21967 12.2192C6.07902 12.3599 6 12.5506 6 12.7496C6 12.9485 6.07902 13.1392 6.21967 13.2799C6.36032 13.4205 6.55109 13.4996 6.75 13.4996H11.75C11.9489 13.4996 12.1397 13.4205 12.2803 13.2799C12.421 13.1392 12.5 12.9485 12.5 12.7496ZM12.75 14.9996C12.9489 14.9996 13.1397 15.0786 13.2803 15.2192C13.421 15.3599 13.5 15.5506 13.5 15.7496C13.5 15.9485 13.421 16.1392 13.2803 16.2799C13.1397 16.4205 12.9489 16.4996 12.75 16.4996H6.75C6.55109 16.4996 6.36032 16.4205 6.21967 16.2799C6.07902 16.1392 6 15.9485 6 15.7496C6 15.5506 6.07902 15.3599 6.21967 15.2192C6.36032 15.0786 6.55109 14.9996 6.75 14.9996H12.75Z" fill="#606A7C"/>
</svg>
