<svg width="255" height="50" viewBox="0 0 255 50" fill="none" xmlns="http://www.w3.org/2000/svg">
<path d="M1 49.9316C1 48.3125 2.31253 47 3.93162 47H8.06838C9.68747 47 11 48.3125 11 49.9316V50H1V49.9316Z" fill="#999999"/>
<path d="M36 49.9316C36 48.3125 37.3125 47 38.9316 47H43.0684C44.6875 47 46 48.3125 46 49.9316V50H36V49.9316Z" fill="#999999"/>
<path d="M70 49.9316C70 48.3125 71.3125 47 72.9316 47H78.0684C79.6875 47 81 48.3125 81 49.9316V50H70V49.9316Z" fill="#999999"/>
<path d="M105 49.9316C105 48.3125 106.313 47 107.932 47H113.068C114.687 47 116 48.3125 116 49.9316V50H105V49.9316Z" fill="#999999"/>
<path d="M140 49.9316C140 48.3125 141.313 47 142.932 47H147.068C148.687 47 150 48.3125 150 49.9316V50H140V49.9316Z" fill="#999999"/>
<path d="M175 49.9316C175 48.3125 176.313 47 177.932 47H182.068C183.687 47 185 48.3125 185 49.9316V50H175V49.9316Z" fill="#999999"/>
<path d="M210 49.9316C210 48.3125 211.313 47 212.932 47H217.068C218.687 47 220 48.3125 220 49.9316V50H210V49.9316Z" fill="#999999"/>
<path d="M245 49.9316C245 48.3125 246.313 47 247.932 47H252.068C253.687 47 255 48.3125 255 49.9316V50H245V49.9316Z" fill="#999999"/>
</svg>
