<svg width="23" height="24" viewBox="0 0 23 24" fill="none" xmlns="http://www.w3.org/2000/svg">
<path opacity="0.5" d="M21.0833 10H1.91663V19C1.91663 19.7956 2.21953 20.5587 2.75869 21.1213C3.29786 21.6839 4.02913 22 4.79163 22H18.2083C18.9708 22 19.7021 21.6839 20.2412 21.1213C20.7804 20.5587 21.0833 19.7956 21.0833 19V10ZM6.70829 8C6.45413 8 6.21037 7.89464 6.03065 7.70711C5.85093 7.51957 5.74996 7.26522 5.74996 7V3C5.74996 2.73478 5.85093 2.48043 6.03065 2.29289C6.21037 2.10536 6.45413 2 6.70829 2C6.96246 2 7.20621 2.10536 7.38594 2.29289C7.56566 2.48043 7.66663 2.73478 7.66663 3V7C7.66663 7.26522 7.56566 7.51957 7.38594 7.70711C7.20621 7.89464 6.96246 8 6.70829 8ZM16.2916 8C16.0375 8 15.7937 7.89464 15.614 7.70711C15.4343 7.51957 15.3333 7.26522 15.3333 7V3C15.3333 2.73478 15.4343 2.48043 15.614 2.29289C15.7937 2.10536 16.0375 2 16.2916 2C16.5458 2 16.7895 2.10536 16.9693 2.29289C17.149 2.48043 17.25 2.73478 17.25 3V7C17.25 7.26522 17.149 7.51957 16.9693 7.70711C16.7895 7.89464 16.5458 8 16.2916 8Z" fill="#878787"/>
<path d="M18.2083 4H17.25V7C17.25 7.26522 17.149 7.51957 16.9693 7.70711C16.7895 7.89464 16.5458 8 16.2916 8C16.0375 8 15.7937 7.89464 15.614 7.70711C15.4343 7.51957 15.3333 7.26522 15.3333 7V4H7.66663V7C7.66663 7.26522 7.56566 7.51957 7.38594 7.70711C7.20621 7.89464 6.96246 8 6.70829 8C6.45413 8 6.21037 7.89464 6.03065 7.70711C5.85093 7.51957 5.74996 7.26522 5.74996 7V4H4.79163C4.02913 4 3.29786 4.31607 2.75869 4.87868C2.21953 5.44129 1.91663 6.20435 1.91663 7V10H21.0833V7C21.0833 6.20435 20.7804 5.44129 20.2412 4.87868C19.7021 4.31607 18.9708 4 18.2083 4Z" fill="#244B8A"/>
<path d="M10.7205 17.0799C10.4151 17.0787 10.1523 17.0036 9.93217 16.8544C9.71319 16.7053 9.54451 16.4892 9.42614 16.2063C9.30895 15.9234 9.25095 15.5831 9.25213 15.1854C9.25213 14.7888 9.31072 14.4509 9.42791 14.1715C9.54628 13.8922 9.71496 13.6797 9.93395 13.5341C10.1541 13.3873 10.4163 13.3139 10.7205 13.3139C11.0247 13.3139 11.2863 13.3873 11.5053 13.5341C11.7255 13.6809 11.8948 13.8939 12.0131 14.1733C12.1315 14.4515 12.1901 14.7888 12.1889 15.1854C12.1889 15.5843 12.1297 15.9252 12.0114 16.2081C11.8942 16.491 11.7261 16.707 11.5071 16.8562C11.2881 17.0053 11.0259 17.0799 10.7205 17.0799ZM10.7205 16.4425C10.9289 16.4425 11.0952 16.3377 11.2195 16.1282C11.3438 15.9187 11.4053 15.6044 11.4041 15.1854C11.4041 14.9096 11.3757 14.6799 11.3189 14.4964C11.2633 14.313 11.1839 14.1751 11.081 14.0827C10.9792 13.9904 10.859 13.9442 10.7205 13.9442C10.5134 13.9442 10.3477 14.0478 10.2234 14.255C10.0991 14.4621 10.0363 14.7723 10.0352 15.1854C10.0352 15.4647 10.063 15.6979 10.1186 15.8849C10.1754 16.0708 10.2553 16.2105 10.3583 16.304C10.4613 16.3963 10.582 16.4425 10.7205 16.4425ZM14.3192 13.3636V17H13.5503V14.0934H13.529L12.6963 14.6154V13.9336L13.5965 13.3636H14.3192Z" fill="#244B8A"/>
</svg>
