<svg width="24" height="22" viewBox="0 0 24 22" fill="none" xmlns="http://www.w3.org/2000/svg">
<path d="M16.775 3.4625L20.5333 7.22083C20.6917 7.37917 20.6917 7.6375 20.5333 7.79583L11.4333 16.8958L7.56667 17.325C7.05 17.3833 6.6125 16.9458 6.67083 16.4292L7.1 12.5625L16.2 3.4625C16.3583 3.30417 16.6167 3.30417 16.775 3.4625ZM23.525 2.50833L21.4917 0.475C20.8583 -0.158333 19.8292 -0.158333 19.1917 0.475L17.7167 1.95C17.5583 2.10833 17.5583 2.36667 17.7167 2.525L21.475 6.28333C21.6333 6.44167 21.8917 6.44167 22.05 6.28333L23.525 4.80833C24.1583 4.17083 24.1583 3.14167 23.525 2.50833ZM16 14.4208V18.6625H2.66667V5.32917H12.2417C12.375 5.32917 12.5 5.275 12.5958 5.18333L14.2625 3.51667C14.5792 3.2 14.3542 2.6625 13.9083 2.6625H2C0.895833 2.6625 0 3.55833 0 4.6625V19.3292C0 20.4333 0.895833 21.3292 2 21.3292H16.6667C17.7708 21.3292 18.6667 20.4333 18.6667 19.3292V12.7542C18.6667 12.3083 18.1292 12.0875 17.8125 12.4L16.1458 14.0667C16.0542 14.1625 16 14.2875 16 14.4208Z" fill="#244B8A"/>
</svg>
