<svg width="24" height="24" viewBox="0 0 24 24" fill="none" xmlns="http://www.w3.org/2000/svg">
<path d="M15.2147 11.9996C15.1032 11.9996 14.9832 11.9824 14.8718 11.9482C14.6587 11.8762 14.4736 11.7389 14.3428 11.5558C14.212 11.3727 14.1422 11.1531 14.1432 10.9282V9.41958C12.9432 9.30815 12.0004 8.29672 12.0004 7.07101V4.07101C12.0004 2.76815 13.0547 1.71387 14.3575 1.71387H19.929C21.2318 1.71387 22.2861 2.76815 22.2861 4.07101V7.07101C22.2861 8.37387 21.2318 9.42815 19.929 9.42815H17.6832L16.0718 11.571C15.8661 11.8453 15.549 11.9996 15.2147 11.9996ZM8.14325 14.1424C7.1778 14.1402 6.25254 13.7556 5.56986 13.073C4.88718 12.3903 4.50266 11.465 4.50039 10.4996C4.50266 9.53413 4.88718 8.60887 5.56986 7.92619C6.25254 7.24351 7.1778 6.85899 8.14325 6.85672C9.1087 6.85899 10.034 7.24351 10.7166 7.92619C11.3993 8.60887 11.7838 9.53413 11.7861 10.4996C11.7838 11.465 11.3993 12.3903 10.7166 13.073C10.034 13.7556 9.1087 14.1402 8.14325 14.1424ZM2.97553 20.5024C4.09839 21.6853 5.83839 22.2853 8.14411 22.2853C10.4498 22.2853 12.1898 21.6853 13.3127 20.5024C14.6172 19.1224 14.5752 17.457 14.5727 17.3447V17.3396C14.5727 16.2853 13.7155 15.4282 12.6612 15.4282H3.62696C2.57268 15.4282 1.71553 16.2853 1.71553 17.3053V17.3164C1.71211 17.4793 1.67953 19.131 2.97553 20.5024Z" fill="#606A7C"/>
</svg>
