<svg width="24" height="24" viewBox="0 0 24 24" fill="none" xmlns="http://www.w3.org/2000/svg">
<path d="M17.8347 10.3496C17.8347 10.968 17.311 11.4699 16.665 11.4699C16.0198 11.4699 15.4961 10.968 15.4961 10.3496C15.4961 9.73042 16.0198 9.22852 16.665 9.22852C17.3101 9.22852 17.8347 9.73042 17.8347 10.3496Z" fill="#244B8A"/>
<path fill-rule="evenodd" clip-rule="evenodd" d="M17.4365 6.54084C16.5484 6.42605 15.4139 6.42605 13.9819 6.42688H10.7761C9.34328 6.42688 8.20877 6.42688 7.32143 6.54084C6.40812 6.65814 5.66742 6.907 5.08424 7.46588C4.50106 8.02476 4.24299 8.73362 4.11898 9.61006C4 10.4605 4 11.5481 4 12.9214V13.0052C4 14.3794 4 15.4661 4.11898 16.3174C4.24215 17.1939 4.50106 17.9027 5.08424 18.4616C5.66742 19.0205 6.40812 19.2685 7.32143 19.3867C8.2096 19.5006 9.34412 19.5006 10.7761 19.5006H13.9819C15.4147 19.5006 16.5492 19.5006 17.4365 19.3867C18.3499 19.2694 19.0906 19.0205 19.6737 18.4616C20.2569 17.9027 20.5158 17.193 20.639 16.3174C20.758 15.4661 20.758 14.3785 20.758 13.0061V12.9223C20.758 11.5481 20.758 10.4614 20.639 9.61006C20.5158 8.73362 20.2569 8.02476 19.6737 7.46588C19.0906 6.907 18.3499 6.65898 17.4365 6.54084ZM7.47728 7.65189C6.69301 7.75244 6.24138 7.94181 5.91041 8.25853C5.58111 8.57442 5.38337 9.00761 5.2778 9.75921C5.19401 10.3625 5.17473 11.1158 5.17054 12.1011L5.56436 11.7702C6.50699 10.9809 7.92639 11.0261 8.81121 11.8741L12.1544 15.079C12.3201 15.2353 12.5339 15.3306 12.7609 15.3495C12.9879 15.3684 13.2145 15.3097 13.4037 15.1829L13.6367 15.0262C14.1831 14.6608 14.8338 14.4836 15.49 14.5214C16.1463 14.5592 16.7723 14.81 17.2732 15.2357L19.29 16.976C19.3721 16.7548 19.4349 16.4909 19.4802 16.1683C19.5874 15.4008 19.5891 14.3886 19.5891 12.9642C19.5891 11.5397 19.5874 10.5267 19.4802 9.75921C19.3746 9.00761 19.1769 8.57442 18.8467 8.25853C18.5174 7.94181 18.065 7.75244 17.2807 7.65189C16.4797 7.54799 15.4239 7.54715 13.9375 7.54715H10.8205C9.33406 7.54715 8.27831 7.54799 7.47728 7.65189Z" fill="#244B8A"/>
<path opacity="0.5" d="M16.6469 4.09217C15.9263 4 15.0088 4 13.865 4H11.2759C10.133 4 9.21555 4 8.49579 4.09217C7.75006 4.18853 7.1275 4.39214 6.63398 4.86304C6.36161 5.12448 6.15391 5.44579 6.02734 5.80148C6.44964 5.60877 6.92725 5.49481 7.4635 5.42443C8.37262 5.30712 9.53311 5.30712 10.9994 5.30712H14.2798C15.7453 5.30712 16.9058 5.30712 17.8149 5.42443C18.2833 5.48559 18.7064 5.58028 19.0885 5.7311C18.9606 5.40306 18.7624 5.10704 18.5078 4.86387C18.0143 4.39214 17.3926 4.18853 16.6469 4.09301V4.09217Z" fill="#244B8A"/>
</svg>
