<svg width="21" height="21" viewBox="0 0 21 21" fill="none" xmlns="http://www.w3.org/2000/svg">
<g clip-path="url(#clip0_1_29385)">
<path d="M10.5 20.7539C16.1631 20.7539 20.7539 16.1631 20.7539 10.5C20.7539 4.83692 16.1631 0.246094 10.5 0.246094C4.83692 0.246094 0.246094 4.83692 0.246094 10.5C0.246094 16.1631 4.83692 20.7539 10.5 20.7539Z" fill="url(#paint0_linear_1_29385)"/>
<path d="M10.4174 1.24707V2.75645H10.5815V1.24707H10.4174ZM9.77724 1.28973L9.61384 1.30285L9.67946 2.12316L9.84287 2.11004L9.77724 1.28973ZM11.2216 1.28973L11.156 2.11004L11.3194 2.12316L11.3851 1.30285L11.2216 1.28973ZM8.97252 1.38062L8.81075 1.40884L9.07325 2.90197L9.23502 2.87359L8.97252 1.38062ZM12.0264 1.38062L11.7639 2.87359L11.9256 2.90213L12.1881 1.40884L12.0264 1.38062ZM8.18338 1.55387L8.02505 1.59669L8.23817 2.38435L8.39649 2.34153L8.18338 1.55387ZM12.8155 1.55387L12.6024 2.34137L12.7607 2.38435L12.9738 1.59685L12.8155 1.55387ZM7.42672 1.77748L7.27201 1.83261L7.78093 3.25995L7.93531 3.20466L7.42672 1.77748ZM13.5722 1.77748L13.0636 3.20483L13.218 3.25979L13.7269 1.83261L13.5722 1.77748ZM14.3301 2.08133L13.9692 2.83618L14.1172 2.90673L14.4783 2.15204L14.3301 2.08133ZM6.66924 2.08248L6.52027 2.15073L6.86481 2.90541L7.01377 2.83749L6.66924 2.08248ZM5.96049 2.45326L5.81825 2.53496L6.57294 3.84746L6.71518 3.76576L5.96049 2.45326ZM15.0384 2.45326L14.2837 3.76576L14.4261 3.84746L15.1808 2.53496L15.0384 2.45326ZM5.267 2.87326L5.13313 2.96792L5.60891 3.64074L5.74295 3.54591L5.267 2.87326ZM15.7319 2.87326L15.2561 3.54591L15.39 3.64074L15.8658 2.96792L15.7319 2.87326ZM4.63963 3.3602L4.51412 3.46585L5.48209 4.61429L5.60743 4.50863L4.63963 3.3602ZM16.3593 3.3602L15.3915 4.50863L15.5168 4.61429L16.4848 3.46585L16.3593 3.3602ZM4.02702 3.89553L3.91266 4.01316L4.50329 4.58738L4.61748 4.46975L4.02702 3.89553ZM3.48069 4.48189L3.37585 4.60789L4.5407 5.57586L4.6457 5.44953L3.48069 4.48189ZM17.5182 4.48189L16.3532 5.4497L16.4582 5.57602L17.623 4.60789L17.5182 4.48189ZM2.98276 5.1173L2.88941 5.25233L3.57863 5.72811L3.67198 5.59292L2.98276 5.1173ZM18.0161 5.1173L17.3271 5.59292L17.4203 5.72811L18.1093 5.25233L18.0161 5.1173ZM2.55062 5.80259L2.46891 5.94484L3.78141 6.69952L3.86312 6.55728L2.55062 5.80259ZM18.4486 5.80259L17.1361 6.55728L17.2178 6.69952L18.5303 5.94484L18.4486 5.80259ZM2.18345 6.50478L2.11421 6.65342L2.85249 6.99795L2.92173 6.84915L2.18345 6.50478ZM18.8158 6.50478L18.0775 6.84931L18.1467 6.99779L18.885 6.65326L18.8158 6.50478ZM1.86566 7.24027L1.80823 7.394L3.21917 7.91933L3.27659 7.76544L1.86566 7.24027ZM19.1332 7.24027L17.7223 7.76544L17.7797 7.91933L19.1907 7.394L19.1332 7.24027ZM1.61185 8.00907L1.56985 8.16772L2.37376 8.38116L2.41592 8.22252L1.61185 8.00907ZM19.387 8.00907L18.5831 8.22252L18.625 8.38116L19.4289 8.16788L19.387 8.00907ZM1.42482 8.79509L1.39627 8.9567L2.88924 9.21936L2.91762 9.05759L1.42482 8.79509ZM19.5741 8.79509L18.0811 9.05759L18.1098 9.21936L19.6028 8.9567L19.5741 8.79509ZM1.32015 9.58177L1.30407 9.74518L2.12438 9.82721L2.14046 9.66381L1.32015 9.58177ZM19.6791 9.58177L18.8588 9.66381L18.8748 9.82721L19.6951 9.74518L19.6791 9.58177ZM1.2793 10.4018V10.5658H2.78851V10.4018H1.2793ZM18.2104 10.4018V10.5658H19.7198V10.4018H18.2104ZM2.12422 11.1241L1.30391 11.2062L1.31998 11.3692L2.1403 11.2872L2.12422 11.1241ZM18.8747 11.1241L18.8586 11.2872L19.6789 11.3692L19.695 11.2062L18.8747 11.1241ZM2.88908 11.732L1.39611 11.9945L1.42482 12.1559L2.91779 11.8934L2.88908 11.732ZM18.1098 11.732L18.0813 11.8934L19.5742 12.1559L19.6026 11.9943L18.1098 11.732ZM2.37392 12.5703L1.57002 12.7833L1.61185 12.9419L2.41576 12.7288L2.37392 12.5703ZM18.625 12.5703L18.583 12.7288L19.3869 12.9419L19.429 12.7833L18.625 12.5703ZM3.21917 13.032L1.80823 13.5568L1.86566 13.7106L3.27659 13.1857L3.21917 13.032ZM17.7797 13.032L17.7223 13.1857L19.1332 13.7107L19.1907 13.5568L17.7797 13.032ZM2.85233 13.9532L2.11405 14.2978L2.18328 14.4464L2.92156 14.1019L2.85233 13.9532ZM18.1466 13.9532L18.0773 14.1019L18.8156 14.4464L18.8848 14.2976L18.1466 13.9532ZM3.78125 14.2682L2.46875 15.0229L2.55045 15.1651L3.86295 14.4105L3.78125 14.2682ZM17.2176 14.2682L17.1359 14.4105L18.4484 15.1651L18.5301 15.0227L17.2176 14.2682ZM3.57863 15.2234L2.88957 15.6992L2.98276 15.8342L3.67182 15.3584L3.57863 15.2234ZM17.4203 15.2234L17.3269 15.3583L18.0161 15.834L18.1095 15.6992L17.4203 15.2234ZM4.5407 15.3753L3.37585 16.3433L3.48069 16.4696L4.6457 15.5016L4.5407 15.3753ZM16.4582 15.3753L16.3532 15.5016L17.5182 16.4696L17.623 16.3433L16.4582 15.3753ZM5.48209 16.3372L4.51412 17.4856L4.63963 17.5915L5.60743 16.443L5.48209 16.3372ZM15.5168 16.3372L15.3915 16.443L16.3593 17.5915L16.4848 17.4856L15.5168 16.3372ZM16.4958 16.3641L16.3814 16.4818L16.972 17.056L17.0862 16.9383L16.4958 16.3641ZM6.57327 17.1198L5.81858 18.4159L5.96016 18.4986L6.71485 17.2025L6.57327 17.1198ZM14.4258 17.1198L14.284 17.2025L15.0387 18.4986L15.1803 18.4159L14.4258 17.1198ZM5.60907 17.3108L5.13313 17.9834L5.267 18.0781L5.74278 17.4053L5.60907 17.3108ZM15.39 17.3108L15.2559 17.4053L15.7317 18.0781L15.8658 17.9832L15.39 17.3108ZM7.78077 17.6914L7.27217 19.1187L7.42672 19.1737L7.93531 17.7465L7.78077 17.6914ZM13.218 17.6914L13.0636 17.7465L13.5722 19.1739L13.7269 19.1186L13.218 17.6914ZM9.07325 18.0494L8.81075 19.5423L8.97252 19.5707L9.23502 18.0777L9.07325 18.0494ZM11.9256 18.0494L11.7639 18.0779L12.0264 19.5709L12.1881 19.5422L11.9256 18.0494ZM6.88203 18.0602L6.52093 18.7985L6.66826 18.8707L7.02952 18.1324L6.88203 18.0602ZM14.1169 18.0602L13.9694 18.1324L14.3306 18.8707L14.478 18.7985L14.1169 18.0602ZM10.4174 18.1947V19.7041H10.5815V18.1947H10.4174ZM8.23817 18.5675L8.02473 19.3714L8.18338 19.4134L8.39666 18.6095L8.23817 18.5675ZM12.7607 18.5675L12.6021 18.6095L12.8155 19.4134L12.9742 19.3714L12.7607 18.5675ZM9.67946 18.8442L9.61384 19.6646L9.77724 19.6777L9.84287 18.8574L9.67946 18.8442ZM11.3194 18.8442L11.156 18.8574L11.2216 19.6777L11.3851 19.6646L11.3194 18.8442Z" fill="white"/>
<path d="M17.5059 3.44531L9.63086 9.63047L10.484 10.4836L17.5059 3.44531Z" fill="#FF0000"/>
<path d="M10.4844 10.4836L11.4688 11.468L17.5062 3.44531L10.4844 10.4836Z" fill="#D01414"/>
<path d="M9.63047 9.63086L3.44531 17.5059L10.4836 10.484L9.63047 9.63086Z" fill="white"/>
<path d="M3.44531 17.5055L11.468 11.468L10.4836 10.4836L3.44531 17.5055Z" fill="#ACACAC"/>
</g>
<defs>
<linearGradient id="paint0_linear_1_29385" x1="10.5033" y1="0.248062" x2="10.5033" y2="20.7546" gradientUnits="userSpaceOnUse">
<stop stop-color="#19D7FF"/>
<stop offset="1" stop-color="#1E64F0"/>
</linearGradient>
<clipPath id="clip0_1_29385">
<rect width="21" height="21" fill="white"/>
</clipPath>
</defs>
</svg>
