<svg width="24" height="18" viewBox="0 0 24 18" fill="none" xmlns="http://www.w3.org/2000/svg">
<g clip-path="url(#clip0_1_33943)">
<path d="M4.35981 17.9107V16.7194C4.35981 16.2626 4.07162 15.9648 3.57766 15.9648C3.33072 15.9648 3.06316 16.0443 2.87791 16.3024C2.73391 16.084 2.52812 15.9648 2.21941 15.9648C2.01353 15.9648 1.80784 16.0244 1.64313 16.2428V16.0046H1.21094V17.9107H1.64313V16.8583C1.64313 16.5209 1.82837 16.3619 2.11656 16.3619C2.40456 16.3619 2.54875 16.5407 2.54875 16.8583V17.9107H2.98094V16.8583C2.98094 16.5209 3.18662 16.3619 3.45419 16.3619C3.74237 16.3619 3.88637 16.5407 3.88637 16.8583V17.9107H4.35981ZM10.7602 16.0046H10.0606V15.4287H9.62837V16.0046H9.23734V16.3817H9.62828V17.2555C9.62828 17.6924 9.81353 17.9505 10.3075 17.9505C10.4927 17.9505 10.6984 17.8909 10.8426 17.8115L10.7191 17.4541C10.5956 17.5335 10.4516 17.5534 10.3487 17.5534C10.1429 17.5534 10.0606 17.4342 10.0606 17.2356V16.3817H10.7602V16.0046ZM14.4236 15.9648C14.1767 15.9648 14.012 16.084 13.9091 16.2428V16.0046H13.4769V17.9107H13.9091V16.8385C13.9091 16.5209 14.0531 16.3421 14.3207 16.3421C14.403 16.3421 14.5059 16.362 14.5882 16.3818L14.7117 15.9847C14.6294 15.9648 14.5059 15.9648 14.4236 15.9648ZM8.88747 16.1634C8.68159 16.0244 8.3935 15.9648 8.08478 15.9648C7.59091 15.9648 7.26166 16.2031 7.26166 16.5804C7.26166 16.8981 7.50859 17.0768 7.94078 17.1364L8.14656 17.1563C8.37297 17.1959 8.49644 17.2555 8.49644 17.3548C8.49644 17.4938 8.33181 17.5931 8.04362 17.5931C7.75553 17.5931 7.52912 17.4938 7.38503 17.3945L7.17925 17.7122C7.40566 17.871 7.71437 17.9505 8.023 17.9505C8.59928 17.9505 8.92863 17.6924 8.92863 17.3349C8.92863 16.9974 8.66106 16.8186 8.24941 16.7591L8.04362 16.7392C7.85838 16.7193 7.71437 16.6797 7.71437 16.5606C7.71437 16.4215 7.85837 16.3421 8.08478 16.3421C8.33181 16.3421 8.57875 16.4413 8.70222 16.501L8.88747 16.1634ZM20.3714 15.9648C20.1243 15.9648 19.9597 16.084 19.8568 16.2428V16.0046H19.4246V17.9107H19.8568V16.8385C19.8568 16.5209 20.0009 16.3421 20.2683 16.3421C20.3507 16.3421 20.4537 16.362 20.536 16.3818L20.6595 15.9847C20.5772 15.9648 20.4537 15.9648 20.3714 15.9648ZM14.8558 16.9576C14.8558 17.5335 15.2673 17.9505 15.9054 17.9505C16.1935 17.9505 16.3993 17.8909 16.6051 17.7321L16.3993 17.3945C16.2347 17.5137 16.07 17.5732 15.8848 17.5732C15.5349 17.5732 15.288 17.3349 15.288 16.9576C15.288 16.6003 15.5349 16.3619 15.8848 16.3421C16.07 16.3421 16.2347 16.4016 16.3993 16.5209L16.6051 16.1833C16.3993 16.0244 16.1935 15.9648 15.9054 15.9648C15.2673 15.9648 14.8558 16.3818 14.8558 16.9576ZM18.8484 16.9576V16.0046H18.4162V16.2428C18.2721 16.0642 18.0663 15.9648 17.7988 15.9648C17.2431 15.9648 16.8109 16.3818 16.8109 16.9576C16.8109 17.5335 17.2431 17.9505 17.7988 17.9505C18.0869 17.9505 18.2927 17.8512 18.4162 17.6725V17.9107H18.8484V16.9576ZM17.2637 16.9576C17.2637 16.6201 17.4901 16.3421 17.8605 16.3421C18.2103 16.3421 18.4574 16.6003 18.4574 16.9576C18.4574 17.2952 18.2103 17.5732 17.8605 17.5732C17.4901 17.5533 17.2637 17.2952 17.2637 16.9576ZM12.098 15.9648C11.5217 15.9648 11.1101 16.3619 11.1101 16.9576C11.1101 17.5534 11.5217 17.9505 12.1186 17.9505C12.4067 17.9505 12.6948 17.871 12.9212 17.6924L12.7154 17.3945C12.5507 17.5137 12.345 17.5931 12.1392 17.5931C11.8716 17.5931 11.6041 17.474 11.5423 17.1363H13.0036V16.9775C13.0242 16.3619 12.6538 15.9648 12.098 15.9648ZM12.098 16.3222C12.3655 16.3222 12.5508 16.4811 12.5919 16.779H11.5629C11.6041 16.5209 11.7893 16.3222 12.098 16.3222ZM22.8204 16.9576V15.25H22.3882V16.2428C22.2441 16.0642 22.0383 15.9648 21.7708 15.9648C21.2151 15.9648 20.7829 16.3818 20.7829 16.9576C20.7829 17.5335 21.2151 17.9505 21.7708 17.9505C22.059 17.9505 22.2647 17.8512 22.3882 17.6725V17.9107H22.8204V16.9576ZM21.2357 16.9576C21.2357 16.6201 21.4621 16.3421 21.8326 16.3421C22.1824 16.3421 22.4294 16.6003 22.4294 16.9576C22.4294 17.2952 22.1824 17.5732 21.8326 17.5732C21.4621 17.5533 21.2357 17.2952 21.2357 16.9576ZM6.78822 16.9576V16.0046H6.35603V16.2428C6.21194 16.0642 6.00616 15.9648 5.73859 15.9648C5.18294 15.9648 4.75075 16.3818 4.75075 16.9576C4.75075 17.5335 5.18294 17.9505 5.73859 17.9505C6.02678 17.9505 6.23256 17.8512 6.35603 17.6725V17.9107H6.78822V16.9576ZM5.18294 16.9576C5.18294 16.6201 5.40934 16.3421 5.77975 16.3421C6.12962 16.3421 6.37666 16.6003 6.37666 16.9576C6.37666 17.2952 6.12962 17.5732 5.77975 17.5732C5.40934 17.5533 5.18294 17.2952 5.18294 16.9576Z" fill="black"/>
<path d="M8.75 1.5293H15.2328V12.7681H8.75V1.5293Z" fill="#FF5F00"/>
<path d="M9.15834 7.14835C9.15834 4.86488 10.2697 2.83948 11.9778 1.52891C10.7225 0.575819 9.13781 0 7.40906 0C3.31341 0 0 3.19685 0 7.14835C0 11.0998 3.31341 14.2967 7.40897 14.2967C9.13772 14.2967 10.7224 13.7209 11.9778 12.7677C10.2697 11.477 9.15834 9.43182 9.15834 7.14835Z" fill="#EB001B"/>
<path d="M23.9778 7.14835C23.9778 11.0998 20.6644 14.2967 16.5688 14.2967C14.8401 14.2967 13.2554 13.7209 12 12.7677C13.7287 11.4572 14.8195 9.43182 14.8195 7.14835C14.8195 4.86488 13.7081 2.83948 12 1.52891C13.2553 0.575819 14.8401 0 16.5688 0C20.6644 0 23.9778 3.21675 23.9778 7.14835Z" fill="#F79E1B"/>
</g>
<defs>
<clipPath id="clip0_1_33943">
<rect width="24" height="18" fill="white"/>
</clipPath>
</defs>
</svg>
