<svg width="23" height="24" viewBox="0 0 23 24" fill="none" xmlns="http://www.w3.org/2000/svg">
<path opacity="0.5" d="M21.0833 10H1.91663V19C1.91663 19.7956 2.21953 20.5587 2.75869 21.1213C3.29786 21.6839 4.02913 22 4.79163 22H18.2083C18.9708 22 19.7021 21.6839 20.2412 21.1213C20.7804 20.5587 21.0833 19.7956 21.0833 19V10ZM6.70829 8C6.45413 8 6.21037 7.89464 6.03065 7.70711C5.85093 7.51957 5.74996 7.26522 5.74996 7V3C5.74996 2.73478 5.85093 2.48043 6.03065 2.29289C6.21037 2.10536 6.45413 2 6.70829 2C6.96246 2 7.20621 2.10536 7.38594 2.29289C7.56566 2.48043 7.66663 2.73478 7.66663 3V7C7.66663 7.26522 7.56566 7.51957 7.38594 7.70711C7.20621 7.89464 6.96246 8 6.70829 8ZM16.2916 8C16.0375 8 15.7937 7.89464 15.614 7.70711C15.4343 7.51957 15.3333 7.26522 15.3333 7V3C15.3333 2.73478 15.4343 2.48043 15.614 2.29289C15.7937 2.10536 16.0375 2 16.2916 2C16.5458 2 16.7895 2.10536 16.9693 2.29289C17.149 2.48043 17.25 2.73478 17.25 3V7C17.25 7.26522 17.149 7.51957 16.9693 7.70711C16.7895 7.89464 16.5458 8 16.2916 8Z" fill="#878787"/>
<path d="M18.2083 4H17.25V7C17.25 7.26522 17.149 7.51957 16.9693 7.70711C16.7895 7.89464 16.5458 8 16.2916 8C16.0375 8 15.7937 7.89464 15.614 7.70711C15.4343 7.51957 15.3333 7.26522 15.3333 7V4H7.66663V7C7.66663 7.26522 7.56566 7.51957 7.38594 7.70711C7.20621 7.89464 6.96246 8 6.70829 8C6.45413 8 6.21037 7.89464 6.03065 7.70711C5.85093 7.51957 5.74996 7.26522 5.74996 7V4H4.79163C4.02913 4 3.29786 4.31607 2.75869 4.87868C2.21953 5.44129 1.91663 6.20435 1.91663 7V10H21.0833V7C21.0833 6.20435 20.7804 5.44129 20.2412 4.87868C19.7021 4.31607 18.9708 4 18.2083 4Z" fill="#244B8A"/>
<path d="M4.31605 13.3636H5.2642L6.26562 15.8068H6.30824L7.30966 13.3636H8.25781V17H7.51207V14.6332H7.48189L6.54084 16.9822H6.03303L5.09197 14.6243H5.06179V17H4.31605V13.3636ZM10.1093 17.0533C9.83348 17.0533 9.59496 16.9947 9.39373 16.8775C9.19368 16.7591 9.03921 16.5946 8.93031 16.3839C8.82141 16.172 8.76696 15.9264 8.76696 15.647C8.76696 15.3653 8.82141 15.1191 8.93031 14.9084C9.03921 14.6965 9.19368 14.532 9.39373 14.4148C9.59496 14.2964 9.83348 14.2372 10.1093 14.2372C10.3851 14.2372 10.623 14.2964 10.8231 14.4148C11.0243 14.532 11.1794 14.6965 11.2883 14.9084C11.3972 15.1191 11.4516 15.3653 11.4516 15.647C11.4516 15.9264 11.3972 16.172 11.2883 16.3839C11.1794 16.5946 11.0243 16.7591 10.8231 16.8775C10.623 16.9947 10.3851 17.0533 10.1093 17.0533ZM10.1128 16.4673C10.2383 16.4673 10.3431 16.4318 10.4271 16.3608C10.5112 16.2886 10.5745 16.1903 10.6171 16.0661C10.6609 15.9418 10.6828 15.8003 10.6828 15.6417C10.6828 15.4831 10.6609 15.3416 10.6171 15.2173C10.5745 15.093 10.5112 14.9948 10.4271 14.9226C10.3431 14.8504 10.2383 14.8143 10.1128 14.8143C9.98618 14.8143 9.87965 14.8504 9.79324 14.9226C9.70801 14.9948 9.6435 15.093 9.5997 15.2173C9.55708 15.3416 9.53578 15.4831 9.53578 15.6417C9.53578 15.8003 9.55708 15.9418 9.5997 16.0661C9.6435 16.1903 9.70801 16.2886 9.79324 16.3608C9.87965 16.4318 9.98618 16.4673 10.1128 16.4673ZM12.6998 15.4233V17H11.9434V14.2727H12.6643V14.7539H12.6963C12.7567 14.5953 12.8579 14.4698 12.9999 14.3775C13.142 14.284 13.3142 14.2372 13.5166 14.2372C13.706 14.2372 13.8711 14.2786 14.012 14.3615C14.1528 14.4444 14.2623 14.5627 14.3405 14.7166C14.4186 14.8693 14.4577 15.0516 14.4577 15.2635V17H13.7013V15.3984C13.7024 15.2315 13.6598 15.1013 13.5734 15.0078C13.487 14.9131 13.368 14.8658 13.2165 14.8658C13.1147 14.8658 13.0248 14.8877 12.9466 14.9315C12.8697 14.9753 12.8093 15.0392 12.7655 15.1232C12.7229 15.2061 12.701 15.3061 12.6998 15.4233ZM16.5044 14.2727V14.8409H14.862V14.2727H16.5044ZM15.2349 13.6193H15.9913V16.1619C15.9913 16.2318 16.002 16.2862 16.0233 16.3253C16.0446 16.3632 16.0742 16.3898 16.112 16.4052C16.1511 16.4206 16.1961 16.4283 16.247 16.4283C16.2825 16.4283 16.318 16.4253 16.3535 16.4194C16.389 16.4123 16.4163 16.407 16.4352 16.4034L16.5542 16.9663C16.5163 16.9781 16.463 16.9917 16.3944 17.0071C16.3257 17.0237 16.2422 17.0337 16.144 17.0373C15.9617 17.0444 15.8019 17.0201 15.6646 16.9645C15.5285 16.9089 15.4225 16.8224 15.3468 16.7053C15.271 16.5881 15.2337 16.4401 15.2349 16.2614V13.6193ZM17.8121 15.4233V17H17.0558V13.3636H17.7908V14.7539H17.8228C17.8844 14.5929 17.9838 14.4669 18.1211 14.3757C18.2584 14.2834 18.4306 14.2372 18.6378 14.2372C18.8272 14.2372 18.9923 14.2786 19.1332 14.3615C19.2752 14.4432 19.3853 14.561 19.4634 14.7148C19.5427 14.8675 19.5818 15.0504 19.5806 15.2635V17H18.8242V15.3984C18.8254 15.2304 18.7828 15.0996 18.6964 15.006C18.6112 14.9125 18.4916 14.8658 18.3377 14.8658C18.2347 14.8658 18.1436 14.8877 18.0643 14.9315C17.9862 14.9753 17.9246 15.0392 17.8796 15.1232C17.8358 15.2061 17.8133 15.3061 17.8121 15.4233Z" fill="#244B8A"/>
</svg>
