<svg width="20" height="21" viewBox="0 0 20 21" fill="none" xmlns="http://www.w3.org/2000/svg">
<path d="M5.0013 16.625H9.16797V20.125L7.08464 18.8125L5.0013 20.125V16.625ZM16.668 0.875H10.0013V20.125L12.0846 18.8125L14.168 20.125V18.375H16.668C17.11 18.375 17.5339 18.1906 17.8465 17.8624C18.159 17.5342 18.3346 17.0891 18.3346 16.625V2.625C18.3346 2.16087 18.159 1.71575 17.8465 1.38756C17.5339 1.05937 17.11 0.875 16.668 0.875ZM11.668 4.375H13.3346V6.125H11.668V4.375ZM11.668 8.75H13.3346V10.5H11.668V8.75ZM11.668 13.125H13.3346V14.875H11.668V13.125ZM3.33464 0.875C2.89301 0.876385 2.46986 1.0612 2.15758 1.38909C1.84531 1.71698 1.66929 2.1613 1.66797 2.625V16.625C1.66929 17.0887 1.84531 17.533 2.15758 17.8609C2.46986 18.1888 2.89301 18.3736 3.33464 18.375V2.625H9.16797V0.875H3.33464Z" fill="#606A7C"/>
<path d="M5 4.375H6.66667V6.125H5V4.375ZM5 8.75H6.66667V10.5H5V8.75ZM5 13.125H6.66667V14.875H5V13.125Z" fill="#606A7C"/>
</svg>
