<svg width="14" height="13" viewBox="0 0 14 13" fill="none" xmlns="http://www.w3.org/2000/svg">
<path d="M3.5 9.23633C3.69833 9.23633 3.8647 9.16433 3.9991 9.02033C4.13303 8.87683 4.2 8.69883 4.2 8.48633C4.2 8.27383 4.13303 8.09558 3.9991 7.95158C3.8647 7.80808 3.69833 7.73633 3.5 7.73633C3.30167 7.73633 3.1353 7.80808 3.0009 7.95158C2.86697 8.09558 2.8 8.27383 2.8 8.48633C2.8 8.69883 2.86697 8.87683 3.0009 9.02033C3.1353 9.16433 3.30167 9.23633 3.5 9.23633ZM2.8 6.98633H4.2V3.23633H2.8V6.98633ZM5.6 8.48633H11.2V6.98633H5.6V8.48633ZM5.6 5.48633H11.2V3.98633H5.6V5.48633ZM1.4 12.2363C1.015 12.2363 0.685533 12.0896 0.4116 11.7961C0.1372 11.5021 0 11.1488 0 10.7363V1.73633C0 1.32383 0.1372 0.970828 0.4116 0.677328C0.685533 0.383328 1.015 0.236328 1.4 0.236328H12.6C12.985 0.236328 13.3147 0.383328 13.5891 0.677328C13.863 0.970828 14 1.32383 14 1.73633V10.7363C14 11.1488 13.863 11.5021 13.5891 11.7961C13.3147 12.0896 12.985 12.2363 12.6 12.2363H1.4ZM1.4 10.7363H12.6V1.73633H1.4V10.7363Z" fill="#333333"/>
</svg>
