<svg width="16" height="14" viewBox="0 0 16 14" fill="none" xmlns="http://www.w3.org/2000/svg">
<path d="M8 3.11111V0H0.5V14H15.5V3.11111H8ZM3.5 12.4444H2V10.8889H3.5V12.4444ZM3.5 9.33333H2V7.77778H3.5V9.33333ZM3.5 6.22222H2V4.66667H3.5V6.22222ZM3.5 3.11111H2V1.55556H3.5V3.11111ZM6.5 12.4444H5V10.8889H6.5V12.4444ZM6.5 9.33333H5V7.77778H6.5V9.33333ZM6.5 6.22222H5V4.66667H6.5V6.22222ZM6.5 3.11111H5V1.55556H6.5V3.11111ZM14 12.4444H8V10.8889H9.5V9.33333H8V7.77778H9.5V6.22222H8V4.66667H14V12.4444ZM12.5 6.22222H11V7.77778H12.5V6.22222ZM12.5 9.33333H11V10.8889H12.5V9.33333Z" fill="#999999"/>
</svg>
