<svg width="14" height="16" viewBox="0 0 14 16" fill="none" xmlns="http://www.w3.org/2000/svg">
<path d="M6.99967 0.5C3.32124 0.5 0.333008 3.3575 0.333008 6.875C0.333008 10.3925 3.32124 13.25 6.99967 13.25H7.39183V15.5C11.2036 13.745 13.6663 10.25 13.6663 6.875C13.6663 3.3575 10.6781 0.5 6.99967 0.5ZM7.78399 11.375H6.21536V9.875H7.78399V11.375ZM7.78399 8.75H6.21536C6.21536 6.3125 8.5683 6.5 8.5683 5C8.5683 4.175 7.86242 3.5 6.99967 3.5C6.13693 3.5 5.43105 4.175 5.43105 5H3.86242C3.86242 3.3425 5.26634 2 6.99967 2C8.73301 2 10.1369 3.3425 10.1369 5C10.1369 6.875 7.78399 7.0625 7.78399 8.75Z" fill="#999999"/>
</svg>
