<svg width="8" height="16" viewBox="0 0 8 16" fill="none" xmlns="http://www.w3.org/2000/svg">
<path d="M4.30648 7.08333C2.52259 6.59167 1.94892 6.08333 1.94892 5.29167C1.94892 4.38333 2.74263 3.75 4.07073 3.75C5.46955 3.75 5.98821 4.45833 6.03536 5.5H7.7721C7.71709 4.06667 6.89194 2.75 5.24951 2.325V0.5H2.89194V2.3C1.36739 2.65 0.141454 3.7 0.141454 5.30833C0.141454 7.23333 1.64244 8.19167 3.83497 8.75C5.79961 9.25 6.19253 9.98333 6.19253 10.7583C6.19253 11.3333 5.80747 12.25 4.07073 12.25C2.45187 12.25 1.81532 11.4833 1.72888 10.5H0C0.0943025 12.325 1.3831 13.35 2.89194 13.6917V15.5H5.24951V13.7083C6.78192 13.4 8 12.4583 8 10.75C8 8.38333 6.09037 7.575 4.30648 7.08333Z" fill="#999999"/>
</svg>
