<svg width="16" height="16" viewBox="0 0 16 16" fill="none" xmlns="http://www.w3.org/2000/svg">
<path d="M10.5 7.60526V2.86842L8 0.5L5.5 2.86842V4.44737H0.5V15.5H15.5V7.60526H10.5ZM3.83333 13.9211H2.16667V12.3421H3.83333V13.9211ZM3.83333 10.7632H2.16667V9.18421H3.83333V10.7632ZM3.83333 7.60526H2.16667V6.02632H3.83333V7.60526ZM8.83333 13.9211H7.16667V12.3421H8.83333V13.9211ZM8.83333 10.7632H7.16667V9.18421H8.83333V10.7632ZM8.83333 7.60526H7.16667V6.02632H8.83333V7.60526ZM8.83333 4.44737H7.16667V2.86842H8.83333V4.44737ZM13.8333 13.9211H12.1667V12.3421H13.8333V13.9211ZM13.8333 10.7632H12.1667V9.18421H13.8333V10.7632Z" fill="#999999"/>
</svg>
