<svg width="16" height="16" viewBox="0 0 16 16" fill="none" xmlns="http://www.w3.org/2000/svg">
<path d="M0.5 15.5V3.83333H3.83333V0.5H12.1667V7.16667H15.5V15.5H8.83333V12.1667H7.16667V15.5H0.5ZM2.16667 13.8333H3.83333V12.1667H2.16667V13.8333ZM2.16667 10.5H3.83333V8.83333H2.16667V10.5ZM2.16667 7.16667H3.83333V5.5H2.16667V7.16667ZM5.5 10.5H7.16667V8.83333H5.5V10.5ZM5.5 7.16667H7.16667V5.5H5.5V7.16667ZM5.5 3.83333H7.16667V2.16667H5.5V3.83333ZM8.83333 10.5H10.5V8.83333H8.83333V10.5ZM8.83333 7.16667H10.5V5.5H8.83333V7.16667ZM8.83333 3.83333H10.5V2.16667H8.83333V3.83333ZM12.1667 13.8333H13.8333V12.1667H12.1667V13.8333ZM12.1667 10.5H13.8333V8.83333H12.1667V10.5Z" fill="#999999"/>
</svg>
