<svg width="255" height="52" viewBox="0 0 255 52" fill="none" xmlns="http://www.w3.org/2000/svg">
<path d="M0.679688 8.96776C0.679688 7.34867 1.99222 6.03613 3.61131 6.03613H8.00875C9.62784 6.03613 10.9404 7.34867 10.9404 8.96776V52.2092H0.679688V8.96776Z" fill="#3E97FF"/>
<path d="M35.8594 22.1611C35.8594 20.542 37.1719 19.2295 38.791 19.2295H43.1884C44.8075 19.2295 46.1201 20.542 46.1201 22.1611V52.2103H35.8594V22.1611Z" fill="#3E97FF"/>
<path d="M70.3047 15.5644C70.3047 13.9453 71.6172 12.6328 73.2363 12.6328H77.6337C79.2528 12.6328 80.5654 13.9453 80.5654 15.5644V52.2097H70.3047V15.5644Z" fill="#3E97FF"/>
<path d="M105.484 40.4834C105.484 38.8643 106.797 37.5518 108.416 37.5518H112.813C114.433 37.5518 115.745 38.8643 115.745 40.4834V52.2099H105.484V40.4834Z" fill="#3E97FF"/>
<path d="M139.922 8.96776C139.922 7.34867 141.234 6.03613 142.853 6.03613H147.251C148.87 6.03613 150.183 7.34867 150.183 8.96776V52.2092H139.922V8.96776Z" fill="#3E97FF"/>
<path d="M175.109 3.10545C175.109 1.48636 176.422 0.173828 178.041 0.173828H182.438C184.058 0.173828 185.37 1.48636 185.37 3.10545V52.2102H175.109V3.10545Z" fill="#3E97FF"/>
<path d="M209.555 40.4834C209.555 38.8643 210.867 37.5518 212.486 37.5518H216.884C218.503 37.5518 219.815 38.8643 219.815 40.4834V52.2099H209.555V40.4834Z" fill="#3E97FF"/>
<path d="M244.734 28.7568C244.734 27.1377 246.047 25.8252 247.666 25.8252H252.063C253.683 25.8252 254.995 27.1377 254.995 28.7568V52.2098H244.734V28.7568Z" fill="#3E97FF"/>
</svg>
