<svg width="303" height="207" viewBox="0 0 303 207" fill="none" xmlns="http://www.w3.org/2000/svg">
<g opacity="0.5">
<path d="M31 1L31 185" stroke="#222222" stroke-width="1.48609" stroke-linecap="round"/>
<path d="M31 1L31 185" stroke="white" stroke-opacity="0.9" stroke-width="1.48609" stroke-linecap="round"/>
</g>
<path d="M20.4248 111.867V110.794L23.1155 106.555H24.0408V108.04H23.4932L21.7969 110.725V110.775H25.6206V111.867H20.4248ZM23.5184 113V111.54L23.5435 111.065V106.555H24.8212V113H23.5184ZM29.427 113.142C28.8858 113.14 28.42 113.006 28.0298 112.742C27.6416 112.478 27.3427 112.095 27.1329 111.593C26.9252 111.092 26.8224 110.489 26.8245 109.784C26.8245 109.081 26.9283 108.482 27.136 107.987C27.3458 107.492 27.6448 107.115 28.0329 106.857C28.4232 106.597 28.8879 106.467 29.427 106.467C29.9662 106.467 30.4299 106.597 30.818 106.857C31.2083 107.117 31.5083 107.495 31.7181 107.99C31.9279 108.483 32.0317 109.081 32.0296 109.784C32.0296 110.491 31.9247 111.095 31.7149 111.596C31.5072 112.098 31.2093 112.481 30.8212 112.745C30.433 113.009 29.9683 113.142 29.427 113.142ZM29.427 112.012C29.7963 112.012 30.0911 111.826 30.3114 111.455C30.5316 111.083 30.6407 110.526 30.6386 109.784C30.6386 109.295 30.5883 108.888 30.4876 108.563C30.389 108.238 30.2484 107.993 30.0659 107.829C29.8855 107.666 29.6725 107.584 29.427 107.584C29.0599 107.584 28.7662 107.768 28.5459 108.135C28.3256 108.502 28.2144 109.052 28.2123 109.784C28.2123 110.279 28.2616 110.692 28.3602 111.024C28.4609 111.353 28.6025 111.601 28.7851 111.766C28.9676 111.93 29.1816 112.012 29.427 112.012ZM33.4106 113V106.555H34.7732V109.397H34.8582L37.1775 106.555H38.8108L36.4191 109.441L38.8391 113H37.209L35.4435 110.35L34.7732 111.168V113H33.4106Z" fill="#222222"/>
<path d="M27.5442 195C27.4788 195 27.4253 194.979 27.3837 194.938C27.348 194.896 27.3302 194.845 27.3302 194.786V190.167L25.9749 191.21C25.9214 191.246 25.8679 191.261 25.8144 191.255C25.7609 191.243 25.7133 191.21 25.6717 191.157L25.2972 190.675C25.2616 190.622 25.2467 190.566 25.2526 190.506C25.2645 190.447 25.2972 190.399 25.3507 190.363L27.348 188.821C27.3837 188.791 27.4194 188.773 27.455 188.767C27.4907 188.761 27.5293 188.758 27.5709 188.758H28.3556C28.415 188.758 28.4656 188.779 28.5072 188.821C28.5488 188.862 28.5696 188.913 28.5696 188.972V194.786C28.5696 194.845 28.5488 194.896 28.5072 194.938C28.4656 194.979 28.415 195 28.3556 195H27.5442ZM31.4278 195C31.3446 195 31.2822 194.979 31.2406 194.938C31.199 194.896 31.1633 194.842 31.1336 194.777L29.8585 190.64C29.8526 190.61 29.8496 190.583 29.8496 190.56C29.8496 190.506 29.8675 190.461 29.9031 190.426C29.9447 190.384 29.9893 190.363 30.0369 190.363H30.6967C30.768 190.363 30.8245 190.384 30.8661 190.426C30.9077 190.461 30.9315 190.497 30.9374 190.533L31.8113 193.484L32.7386 190.56C32.7505 190.518 32.7772 190.476 32.8188 190.435C32.8604 190.387 32.9229 190.363 33.0061 190.363H33.4519C33.5351 190.363 33.5975 190.387 33.6391 190.435C33.6808 190.476 33.7075 190.518 33.7194 190.56L34.6467 193.484L35.5205 190.533C35.5265 190.497 35.5473 190.461 35.5829 190.426C35.6246 190.384 35.681 190.363 35.7524 190.363H36.4122C36.4657 190.363 36.5103 190.384 36.5459 190.426C36.5875 190.461 36.6083 190.506 36.6083 190.56C36.6083 190.583 36.6024 190.61 36.5905 190.64L35.3155 194.777C35.2976 194.842 35.2649 194.896 35.2174 194.938C35.1758 194.979 35.1133 195 35.0301 195H34.4505C34.3673 195 34.3019 194.979 34.2544 194.938C34.2068 194.896 34.1741 194.842 34.1563 194.777L33.229 191.959L32.3017 194.777C32.2779 194.842 32.2422 194.896 32.1947 194.938C32.1531 194.979 32.0877 195 31.9985 195H31.4278Z" fill="#222222"/>
<path d="M27.5442 195C27.4788 195 27.4253 194.979 27.3837 194.938C27.348 194.896 27.3302 194.845 27.3302 194.786V190.167L25.9749 191.21C25.9214 191.246 25.8679 191.261 25.8144 191.255C25.7609 191.243 25.7133 191.21 25.6717 191.157L25.2972 190.675C25.2616 190.622 25.2467 190.566 25.2526 190.506C25.2645 190.447 25.2972 190.399 25.3507 190.363L27.348 188.821C27.3837 188.791 27.4194 188.773 27.455 188.767C27.4907 188.761 27.5293 188.758 27.5709 188.758H28.3556C28.415 188.758 28.4656 188.779 28.5072 188.821C28.5488 188.862 28.5696 188.913 28.5696 188.972V194.786C28.5696 194.845 28.5488 194.896 28.5072 194.938C28.4656 194.979 28.415 195 28.3556 195H27.5442ZM31.4278 195C31.3446 195 31.2822 194.979 31.2406 194.938C31.199 194.896 31.1633 194.842 31.1336 194.777L29.8585 190.64C29.8526 190.61 29.8496 190.583 29.8496 190.56C29.8496 190.506 29.8675 190.461 29.9031 190.426C29.9447 190.384 29.9893 190.363 30.0369 190.363H30.6967C30.768 190.363 30.8245 190.384 30.8661 190.426C30.9077 190.461 30.9315 190.497 30.9374 190.533L31.8113 193.484L32.7386 190.56C32.7505 190.518 32.7772 190.476 32.8188 190.435C32.8604 190.387 32.9229 190.363 33.0061 190.363H33.4519C33.5351 190.363 33.5975 190.387 33.6391 190.435C33.6808 190.476 33.7075 190.518 33.7194 190.56L34.6467 193.484L35.5205 190.533C35.5265 190.497 35.5473 190.461 35.5829 190.426C35.6246 190.384 35.681 190.363 35.7524 190.363H36.4122C36.4657 190.363 36.5103 190.384 36.5459 190.426C36.5875 190.461 36.6083 190.506 36.6083 190.56C36.6083 190.583 36.6024 190.61 36.5905 190.64L35.3155 194.777C35.2976 194.842 35.2649 194.896 35.2174 194.938C35.1758 194.979 35.1133 195 35.0301 195H34.4505C34.3673 195 34.3019 194.979 34.2544 194.938C34.2068 194.896 34.1741 194.842 34.1563 194.777L33.229 191.959L32.3017 194.777C32.2779 194.842 32.2422 194.896 32.1947 194.938C32.1531 194.979 32.0877 195 31.9985 195H31.4278Z" fill="white" fill-opacity="0.2"/>
<g opacity="0.5">
<path d="M110 1L110 185" stroke="#222222" stroke-width="1.48609" stroke-linecap="round"/>
<path d="M110 1L110 185" stroke="white" stroke-opacity="0.9" stroke-width="1.48609" stroke-linecap="round"/>
</g>
<path d="M103.99 195C103.93 195 103.88 194.979 103.838 194.938C103.797 194.896 103.776 194.845 103.776 194.786V194.331C103.776 194.278 103.788 194.215 103.811 194.144C103.841 194.067 103.904 193.989 103.999 193.912L105.408 192.512C105.8 192.203 106.115 191.942 106.353 191.728C106.596 191.508 106.772 191.309 106.879 191.13C106.992 190.946 107.048 190.765 107.048 190.586C107.048 190.319 106.974 190.102 106.825 189.935C106.683 189.769 106.454 189.686 106.139 189.686C105.931 189.686 105.755 189.73 105.613 189.82C105.47 189.903 105.357 190.016 105.274 190.158C105.196 190.301 105.143 190.459 105.113 190.631C105.101 190.708 105.069 190.762 105.015 190.791C104.962 190.821 104.908 190.836 104.855 190.836H104.061C104.008 190.836 103.963 190.818 103.927 190.782C103.892 190.747 103.874 190.705 103.874 190.658C103.88 190.402 103.933 190.155 104.034 189.918C104.135 189.674 104.281 189.46 104.471 189.276C104.667 189.085 104.905 188.934 105.185 188.821C105.464 188.708 105.779 188.651 106.13 188.651C106.623 188.651 107.03 188.735 107.351 188.901C107.678 189.068 107.922 189.293 108.082 189.579C108.249 189.864 108.332 190.185 108.332 190.542C108.332 190.821 108.279 191.08 108.172 191.317C108.065 191.549 107.91 191.775 107.708 191.995C107.506 192.209 107.262 192.429 106.977 192.655L105.711 193.939H108.252C108.317 193.939 108.368 193.96 108.403 194.001C108.445 194.037 108.466 194.088 108.466 194.153V194.786C108.466 194.845 108.445 194.896 108.403 194.938C108.368 194.979 108.317 195 108.252 195H103.99ZM111.121 195C111.038 195 110.976 194.979 110.934 194.938C110.892 194.896 110.857 194.842 110.827 194.777L109.552 190.64C109.546 190.61 109.543 190.583 109.543 190.56C109.543 190.506 109.561 190.461 109.597 190.426C109.638 190.384 109.683 190.363 109.73 190.363H110.39C110.461 190.363 110.518 190.384 110.56 190.426C110.601 190.461 110.625 190.497 110.631 190.533L111.505 193.484L112.432 190.56C112.444 190.518 112.471 190.476 112.512 190.435C112.554 190.387 112.616 190.363 112.699 190.363H113.145C113.229 190.363 113.291 190.387 113.333 190.435C113.374 190.476 113.401 190.518 113.413 190.56L114.34 193.484L115.214 190.533C115.22 190.497 115.241 190.461 115.276 190.426C115.318 190.384 115.374 190.363 115.446 190.363H116.106C116.159 190.363 116.204 190.384 116.239 190.426C116.281 190.461 116.302 190.506 116.302 190.56C116.302 190.583 116.296 190.61 116.284 190.64L115.009 194.777C114.991 194.842 114.958 194.896 114.911 194.938C114.869 194.979 114.807 195 114.724 195H114.144C114.061 195 113.995 194.979 113.948 194.938C113.9 194.896 113.868 194.842 113.85 194.777L112.922 191.959L111.995 194.777C111.971 194.842 111.936 194.896 111.888 194.938C111.846 194.979 111.781 195 111.692 195H111.121Z" fill="#222222"/>
<path d="M103.99 195C103.93 195 103.88 194.979 103.838 194.938C103.797 194.896 103.776 194.845 103.776 194.786V194.331C103.776 194.278 103.788 194.215 103.811 194.144C103.841 194.067 103.904 193.989 103.999 193.912L105.408 192.512C105.8 192.203 106.115 191.942 106.353 191.728C106.596 191.508 106.772 191.309 106.879 191.13C106.992 190.946 107.048 190.765 107.048 190.586C107.048 190.319 106.974 190.102 106.825 189.935C106.683 189.769 106.454 189.686 106.139 189.686C105.931 189.686 105.755 189.73 105.613 189.82C105.47 189.903 105.357 190.016 105.274 190.158C105.196 190.301 105.143 190.459 105.113 190.631C105.101 190.708 105.069 190.762 105.015 190.791C104.962 190.821 104.908 190.836 104.855 190.836H104.061C104.008 190.836 103.963 190.818 103.927 190.782C103.892 190.747 103.874 190.705 103.874 190.658C103.88 190.402 103.933 190.155 104.034 189.918C104.135 189.674 104.281 189.46 104.471 189.276C104.667 189.085 104.905 188.934 105.185 188.821C105.464 188.708 105.779 188.651 106.13 188.651C106.623 188.651 107.03 188.735 107.351 188.901C107.678 189.068 107.922 189.293 108.082 189.579C108.249 189.864 108.332 190.185 108.332 190.542C108.332 190.821 108.279 191.08 108.172 191.317C108.065 191.549 107.91 191.775 107.708 191.995C107.506 192.209 107.262 192.429 106.977 192.655L105.711 193.939H108.252C108.317 193.939 108.368 193.96 108.403 194.001C108.445 194.037 108.466 194.088 108.466 194.153V194.786C108.466 194.845 108.445 194.896 108.403 194.938C108.368 194.979 108.317 195 108.252 195H103.99ZM111.121 195C111.038 195 110.976 194.979 110.934 194.938C110.892 194.896 110.857 194.842 110.827 194.777L109.552 190.64C109.546 190.61 109.543 190.583 109.543 190.56C109.543 190.506 109.561 190.461 109.597 190.426C109.638 190.384 109.683 190.363 109.73 190.363H110.39C110.461 190.363 110.518 190.384 110.56 190.426C110.601 190.461 110.625 190.497 110.631 190.533L111.505 193.484L112.432 190.56C112.444 190.518 112.471 190.476 112.512 190.435C112.554 190.387 112.616 190.363 112.699 190.363H113.145C113.229 190.363 113.291 190.387 113.333 190.435C113.374 190.476 113.401 190.518 113.413 190.56L114.34 193.484L115.214 190.533C115.22 190.497 115.241 190.461 115.276 190.426C115.318 190.384 115.374 190.363 115.446 190.363H116.106C116.159 190.363 116.204 190.384 116.239 190.426C116.281 190.461 116.302 190.506 116.302 190.56C116.302 190.583 116.296 190.61 116.284 190.64L115.009 194.777C114.991 194.842 114.958 194.896 114.911 194.938C114.869 194.979 114.807 195 114.724 195H114.144C114.061 195 113.995 194.979 113.948 194.938C113.9 194.896 113.868 194.842 113.85 194.777L112.922 191.959L111.995 194.777C111.971 194.842 111.936 194.896 111.888 194.938C111.846 194.979 111.781 195 111.692 195H111.121Z" fill="white" fill-opacity="0.2"/>
<g opacity="0.5">
<path d="M195 1L195 186" stroke="#222222" stroke-width="1.48609" stroke-linecap="round"/>
<path d="M195 1L195 186" stroke="white" stroke-opacity="0.9" stroke-width="1.48609" stroke-linecap="round"/>
</g>
<path d="M101.445 52.5549V59H100.082V53.8483H100.045L98.5686 54.7736V53.5651L100.164 52.5549H101.445ZM105.875 59.1416C105.334 59.1395 104.868 59.0063 104.478 58.7419C104.09 58.4776 103.791 58.0947 103.581 57.5933C103.373 57.0919 103.271 56.4887 103.273 55.7838C103.273 55.0809 103.377 54.4819 103.584 53.9868C103.794 53.4917 104.093 53.1151 104.481 52.857C104.871 52.5969 105.336 52.4668 105.875 52.4668C106.415 52.4668 106.878 52.5969 107.266 52.857C107.657 53.1172 107.957 53.4948 108.166 53.99C108.376 54.483 108.48 55.0809 108.478 55.7838C108.478 56.4908 108.373 57.095 108.163 57.5964C107.956 58.0979 107.658 58.4807 107.269 58.7451C106.881 59.0094 106.417 59.1416 105.875 59.1416ZM105.875 58.0118C106.245 58.0118 106.539 57.8262 106.76 57.4548C106.98 57.0835 107.089 56.5264 107.087 55.7838C107.087 55.2949 107.037 54.8879 106.936 54.5627C106.837 54.2375 106.697 53.9931 106.514 53.8295C106.334 53.6658 106.121 53.584 105.875 53.584C105.508 53.584 105.214 53.7676 104.994 54.1347C104.774 54.5019 104.663 55.0515 104.661 55.7838C104.661 56.2789 104.71 56.6922 104.809 57.0237C104.909 57.3531 105.051 57.6006 105.233 57.7664C105.416 57.93 105.63 58.0118 105.875 58.0118ZM112.348 59.1416C111.807 59.1395 111.341 59.0063 110.951 58.7419C110.563 58.4776 110.264 58.0947 110.054 57.5933C109.846 57.0919 109.743 56.4887 109.746 55.7838C109.746 55.0809 109.849 54.4819 110.057 53.9868C110.267 53.4917 110.566 53.1151 110.954 52.857C111.344 52.5969 111.809 52.4668 112.348 52.4668C112.887 52.4668 113.351 52.5969 113.739 52.857C114.129 53.1172 114.429 53.4948 114.639 53.99C114.849 54.483 114.953 55.0809 114.951 55.7838C114.951 56.4908 114.846 57.095 114.636 57.5964C114.428 58.0979 114.13 58.4807 113.742 58.7451C113.354 59.0094 112.889 59.1416 112.348 59.1416ZM112.348 58.0118C112.717 58.0118 113.012 57.8262 113.232 57.4548C113.453 57.0835 113.562 56.5264 113.56 55.7838C113.56 55.2949 113.509 54.8879 113.409 54.5627C113.31 54.2375 113.17 53.9931 112.987 53.8295C112.807 53.6658 112.594 53.584 112.348 53.584C111.981 53.584 111.687 53.7676 111.467 54.1347C111.247 54.5019 111.136 55.0515 111.133 55.7838C111.133 56.2789 111.183 56.6922 111.281 57.0237C111.382 57.3531 111.524 57.6006 111.706 57.7664C111.889 57.93 112.103 58.0118 112.348 58.0118ZM116.332 59V52.5549H117.694V55.3967H117.779L120.099 52.5549H121.732L119.34 55.4407L121.76 59H120.13L118.365 56.3502L117.694 57.1684V59H116.332Z" fill="#222222"/>
<path d="M185.445 105.867V104.794L188.135 100.555H189.061V102.04H188.513L186.817 104.725V104.775H190.64V105.867H185.445ZM188.538 107V105.54L188.563 105.065V100.555H189.841V107H188.538ZM194.447 107.142C193.906 107.14 193.44 107.006 193.05 106.742C192.661 106.478 192.363 106.095 192.153 105.593C191.945 105.092 191.842 104.489 191.844 103.784C191.844 103.081 191.948 102.482 192.156 101.987C192.366 101.492 192.665 101.115 193.053 100.857C193.443 100.597 193.908 100.467 194.447 100.467C194.986 100.467 195.45 100.597 195.838 100.857C196.228 101.117 196.528 101.495 196.738 101.99C196.948 102.483 197.052 103.081 197.049 103.784C197.049 104.491 196.945 105.095 196.735 105.596C196.527 106.098 196.229 106.481 195.841 106.745C195.453 107.009 194.988 107.142 194.447 107.142ZM194.447 106.012C194.816 106.012 195.111 105.826 195.331 105.455C195.551 105.083 195.661 104.526 195.658 103.784C195.658 103.295 195.608 102.888 195.507 102.563C195.409 102.238 195.268 101.993 195.086 101.829C194.905 101.666 194.692 101.584 194.447 101.584C194.08 101.584 193.786 101.768 193.566 102.135C193.345 102.502 193.234 103.052 193.232 103.784C193.232 104.279 193.281 104.692 193.38 105.024C193.481 105.353 193.622 105.601 193.805 105.766C193.987 105.93 194.201 106.012 194.447 106.012ZM198.43 107V100.555H199.793V103.397H199.878L202.197 100.555H203.831L201.439 103.441L203.859 107H202.229L200.463 104.35L199.793 105.168V107H198.43Z" fill="#222222"/>
<path d="M191.1 195.089C190.684 195.089 190.324 195.039 190.021 194.938C189.718 194.837 189.465 194.706 189.263 194.545C189.067 194.379 188.918 194.2 188.817 194.01C188.716 193.814 188.662 193.621 188.657 193.431C188.657 193.377 188.674 193.336 188.71 193.306C188.752 193.27 188.799 193.252 188.853 193.252H189.655C189.715 193.252 189.765 193.264 189.807 193.288C189.848 193.312 189.884 193.359 189.914 193.431C189.967 193.591 190.053 193.719 190.172 193.814C190.297 193.909 190.44 193.978 190.6 194.019C190.761 194.055 190.93 194.073 191.109 194.073C191.465 194.073 191.748 193.989 191.956 193.823C192.17 193.651 192.277 193.407 192.277 193.092C192.277 192.777 192.179 192.551 191.982 192.414C191.786 192.272 191.513 192.2 191.162 192.2H190.244C190.178 192.2 190.125 192.182 190.083 192.147C190.042 192.105 190.021 192.052 190.021 191.986V191.612C190.021 191.552 190.033 191.502 190.056 191.46C190.086 191.413 190.116 191.374 190.146 191.344L191.742 189.784H189.192C189.126 189.784 189.073 189.763 189.031 189.721C188.995 189.68 188.978 189.629 188.978 189.57V188.981C188.978 188.916 188.995 188.862 189.031 188.821C189.073 188.779 189.126 188.758 189.192 188.758H193.017C193.082 188.758 193.136 188.779 193.177 188.821C193.219 188.862 193.24 188.916 193.24 188.981V189.516C193.24 189.57 193.228 189.617 193.204 189.659C193.18 189.701 193.153 189.736 193.124 189.766L191.581 191.353L191.688 191.362C192.051 191.392 192.372 191.475 192.651 191.612C192.936 191.742 193.156 191.936 193.311 192.191C193.471 192.447 193.552 192.768 193.552 193.154C193.552 193.558 193.445 193.906 193.231 194.198C193.023 194.483 192.734 194.703 192.366 194.857C191.997 195.012 191.575 195.089 191.1 195.089ZM196.169 195C196.086 195 196.024 194.979 195.982 194.938C195.94 194.896 195.905 194.842 195.875 194.777L194.6 190.64C194.594 190.61 194.591 190.583 194.591 190.56C194.591 190.506 194.609 190.461 194.644 190.426C194.686 190.384 194.731 190.363 194.778 190.363H195.438C195.509 190.363 195.566 190.384 195.607 190.426C195.649 190.461 195.673 190.497 195.679 190.533L196.553 193.484L197.48 190.56C197.492 190.518 197.519 190.476 197.56 190.435C197.602 190.387 197.664 190.363 197.747 190.363H198.193C198.276 190.363 198.339 190.387 198.38 190.435C198.422 190.476 198.449 190.518 198.461 190.56L199.388 193.484L200.262 190.533C200.268 190.497 200.289 190.461 200.324 190.426C200.366 190.384 200.422 190.363 200.494 190.363H201.153C201.207 190.363 201.252 190.384 201.287 190.426C201.329 190.461 201.35 190.506 201.35 190.56C201.35 190.583 201.344 190.61 201.332 190.64L200.057 194.777C200.039 194.842 200.006 194.896 199.959 194.938C199.917 194.979 199.855 195 199.771 195H199.192C199.109 195 199.043 194.979 198.996 194.938C198.948 194.896 198.915 194.842 198.898 194.777L197.97 191.959L197.043 194.777C197.019 194.842 196.984 194.896 196.936 194.938C196.894 194.979 196.829 195 196.74 195H196.169Z" fill="#222222"/>
<path d="M191.1 195.089C190.684 195.089 190.324 195.039 190.021 194.938C189.718 194.837 189.465 194.706 189.263 194.545C189.067 194.379 188.918 194.2 188.817 194.01C188.716 193.814 188.662 193.621 188.657 193.431C188.657 193.377 188.674 193.336 188.71 193.306C188.752 193.27 188.799 193.252 188.853 193.252H189.655C189.715 193.252 189.765 193.264 189.807 193.288C189.848 193.312 189.884 193.359 189.914 193.431C189.967 193.591 190.053 193.719 190.172 193.814C190.297 193.909 190.44 193.978 190.6 194.019C190.761 194.055 190.93 194.073 191.109 194.073C191.465 194.073 191.748 193.989 191.956 193.823C192.17 193.651 192.277 193.407 192.277 193.092C192.277 192.777 192.179 192.551 191.982 192.414C191.786 192.272 191.513 192.2 191.162 192.2H190.244C190.178 192.2 190.125 192.182 190.083 192.147C190.042 192.105 190.021 192.052 190.021 191.986V191.612C190.021 191.552 190.033 191.502 190.056 191.46C190.086 191.413 190.116 191.374 190.146 191.344L191.742 189.784H189.192C189.126 189.784 189.073 189.763 189.031 189.721C188.995 189.68 188.978 189.629 188.978 189.57V188.981C188.978 188.916 188.995 188.862 189.031 188.821C189.073 188.779 189.126 188.758 189.192 188.758H193.017C193.082 188.758 193.136 188.779 193.177 188.821C193.219 188.862 193.24 188.916 193.24 188.981V189.516C193.24 189.57 193.228 189.617 193.204 189.659C193.18 189.701 193.153 189.736 193.124 189.766L191.581 191.353L191.688 191.362C192.051 191.392 192.372 191.475 192.651 191.612C192.936 191.742 193.156 191.936 193.311 192.191C193.471 192.447 193.552 192.768 193.552 193.154C193.552 193.558 193.445 193.906 193.231 194.198C193.023 194.483 192.734 194.703 192.366 194.857C191.997 195.012 191.575 195.089 191.1 195.089ZM196.169 195C196.086 195 196.024 194.979 195.982 194.938C195.94 194.896 195.905 194.842 195.875 194.777L194.6 190.64C194.594 190.61 194.591 190.583 194.591 190.56C194.591 190.506 194.609 190.461 194.644 190.426C194.686 190.384 194.731 190.363 194.778 190.363H195.438C195.509 190.363 195.566 190.384 195.607 190.426C195.649 190.461 195.673 190.497 195.679 190.533L196.553 193.484L197.48 190.56C197.492 190.518 197.519 190.476 197.56 190.435C197.602 190.387 197.664 190.363 197.747 190.363H198.193C198.276 190.363 198.339 190.387 198.38 190.435C198.422 190.476 198.449 190.518 198.461 190.56L199.388 193.484L200.262 190.533C200.268 190.497 200.289 190.461 200.324 190.426C200.366 190.384 200.422 190.363 200.494 190.363H201.153C201.207 190.363 201.252 190.384 201.287 190.426C201.329 190.461 201.35 190.506 201.35 190.56C201.35 190.583 201.344 190.61 201.332 190.64L200.057 194.777C200.039 194.842 200.006 194.896 199.959 194.938C199.917 194.979 199.855 195 199.771 195H199.192C199.109 195 199.043 194.979 198.996 194.938C198.948 194.896 198.915 194.842 198.898 194.777L197.97 191.959L197.043 194.777C197.019 194.842 196.984 194.896 196.936 194.938C196.894 194.979 196.829 195 196.74 195H196.169Z" fill="white" fill-opacity="0.2"/>
<g opacity="0.5">
<path d="M278 1L278 187" stroke="#222222" stroke-width="1.48609" stroke-linecap="round"/>
<path d="M278 1L278 187" stroke="white" stroke-opacity="0.9" stroke-width="1.48609" stroke-linecap="round"/>
</g>
<path d="M271.02 72.0881C270.535 72.0881 270.104 72.0094 269.727 71.8521C269.351 71.6926 269.056 71.4755 268.842 71.2007C268.628 70.9258 268.521 70.6143 268.521 70.266C268.521 69.9975 268.582 69.7509 268.704 69.5264C268.828 69.2999 268.996 69.1121 269.207 68.9631C269.419 68.8121 269.656 68.7156 269.919 68.6736V68.6296C269.575 68.5603 269.296 68.3935 269.082 68.1292C268.868 67.8627 268.761 67.5533 268.761 67.2008C268.761 66.8672 268.858 66.5704 269.053 66.3102C269.248 66.048 269.516 65.8423 269.856 65.6934C270.198 65.5423 270.586 65.4668 271.02 65.4668C271.454 65.4668 271.841 65.5423 272.181 65.6934C272.523 65.8444 272.792 66.0511 272.987 66.3134C273.182 66.5735 273.281 66.8693 273.283 67.2008C273.281 67.5554 273.172 67.8648 272.956 68.1292C272.739 68.3935 272.463 68.5603 272.125 68.6296V68.6736C272.383 68.7156 272.617 68.8121 272.827 68.9631C273.038 69.1121 273.206 69.2999 273.33 69.5264C273.456 69.7509 273.52 69.9975 273.522 70.266C273.52 70.6143 273.412 70.9258 273.198 71.2007C272.984 71.4755 272.688 71.6926 272.31 71.8521C271.935 72.0094 271.505 72.0881 271.02 72.0881ZM271.02 71.0874C271.236 71.0874 271.425 71.0486 271.587 70.9709C271.748 70.8912 271.874 70.7821 271.964 70.6436C272.057 70.5031 272.103 70.3415 272.103 70.159C272.103 69.9723 272.055 69.8076 271.961 69.6649C271.867 69.5202 271.739 69.4069 271.577 69.325C271.416 69.2411 271.23 69.1992 271.02 69.1992C270.812 69.1992 270.627 69.2411 270.463 69.325C270.299 69.4069 270.17 69.5202 270.076 69.6649C269.984 69.8076 269.938 69.9723 269.938 70.159C269.938 70.3415 269.983 70.5031 270.073 70.6436C270.163 70.7821 270.29 70.8912 270.454 70.9709C270.617 71.0486 270.806 71.0874 271.02 71.0874ZM271.02 68.2079C271.201 68.2079 271.361 68.1711 271.502 68.0977C271.642 68.0243 271.752 67.9225 271.832 67.7924C271.912 67.6624 271.952 67.5124 271.952 67.3424C271.952 67.1746 271.912 67.0277 271.832 66.9018C271.752 66.7739 271.643 66.6742 271.505 66.6029C271.366 66.5294 271.205 66.4927 271.02 66.4927C270.838 66.4927 270.676 66.5294 270.535 66.6029C270.395 66.6742 270.285 66.7739 270.205 66.9018C270.127 67.0277 270.089 67.1746 270.089 67.3424C270.089 67.5124 270.128 67.6624 270.208 67.7924C270.288 67.9225 270.398 68.0243 270.539 68.0977C270.679 68.1711 270.84 68.2079 271.02 68.2079ZM277.373 72.1416C276.832 72.1395 276.366 72.0063 275.976 71.7419C275.588 71.4776 275.289 71.0947 275.079 70.5933C274.871 70.0919 274.769 69.4887 274.771 68.7838C274.771 68.0809 274.875 67.4819 275.082 66.9868C275.292 66.4917 275.591 66.1151 275.979 65.857C276.369 65.5969 276.834 65.4668 277.373 65.4668C277.913 65.4668 278.376 65.5969 278.764 65.857C279.155 66.1172 279.455 66.4948 279.664 66.99C279.874 67.483 279.978 68.0809 279.976 68.7838C279.976 69.4908 279.871 70.095 279.661 70.5964C279.454 71.0979 279.156 71.4807 278.767 71.7451C278.379 72.0094 277.915 72.1416 277.373 72.1416ZM277.373 71.0118C277.743 71.0118 278.037 70.8262 278.258 70.4548C278.478 70.0835 278.587 69.5264 278.585 68.7838C278.585 68.2949 278.535 67.8879 278.434 67.5627C278.335 67.2375 278.195 66.9931 278.012 66.8295C277.832 66.6658 277.619 66.584 277.373 66.584C277.006 66.584 276.712 66.7676 276.492 67.1347C276.272 67.5019 276.161 68.0515 276.159 68.7838C276.159 69.2789 276.208 69.6922 276.306 70.0237C276.407 70.3531 276.549 70.6006 276.731 70.7664C276.914 70.93 277.128 71.0118 277.373 71.0118ZM281.357 72V65.5549H282.719V68.3967H282.804L285.124 65.5549H286.757L284.365 68.4407L286.785 72H285.155L283.39 69.3502L282.719 70.1684V72H281.357Z" fill="#222222"/>
<path d="M274.749 195C274.689 195 274.639 194.979 274.597 194.938C274.555 194.896 274.535 194.845 274.535 194.786V193.645H271.708C271.643 193.645 271.589 193.624 271.548 193.582C271.512 193.541 271.494 193.49 271.494 193.431V192.824C271.494 192.789 271.5 192.747 271.512 192.7C271.53 192.646 271.556 192.598 271.592 192.557L274.222 188.91C274.3 188.809 274.41 188.758 274.552 188.758H275.524C275.584 188.758 275.634 188.779 275.676 188.821C275.717 188.862 275.738 188.913 275.738 188.972V192.593H276.532C276.603 192.593 276.657 192.613 276.692 192.655C276.734 192.691 276.755 192.741 276.755 192.807V193.431C276.755 193.49 276.734 193.541 276.692 193.582C276.651 193.624 276.6 193.645 276.541 193.645H275.738V194.786C275.738 194.845 275.717 194.896 275.676 194.938C275.634 194.979 275.584 195 275.524 195H274.749ZM272.733 192.628H274.561V190.051L272.733 192.628ZM279.269 195C279.186 195 279.124 194.979 279.082 194.938C279.04 194.896 279.005 194.842 278.975 194.777L277.7 190.64C277.694 190.61 277.691 190.583 277.691 190.56C277.691 190.506 277.709 190.461 277.745 190.426C277.786 190.384 277.831 190.363 277.878 190.363H278.538C278.609 190.363 278.666 190.384 278.708 190.426C278.749 190.461 278.773 190.497 278.779 190.533L279.653 193.484L280.58 190.56C280.592 190.518 280.619 190.476 280.66 190.435C280.702 190.387 280.764 190.363 280.848 190.363H281.293C281.377 190.363 281.439 190.387 281.481 190.435C281.522 190.476 281.549 190.518 281.561 190.56L282.488 193.484L283.362 190.533C283.368 190.497 283.389 190.461 283.424 190.426C283.466 190.384 283.522 190.363 283.594 190.363H284.254C284.307 190.363 284.352 190.384 284.387 190.426C284.429 190.461 284.45 190.506 284.45 190.56C284.45 190.583 284.444 190.61 284.432 190.64L283.157 194.777C283.139 194.842 283.106 194.896 283.059 194.938C283.017 194.979 282.955 195 282.872 195H282.292C282.209 195 282.143 194.979 282.096 194.938C282.048 194.896 282.016 194.842 281.998 194.777L281.07 191.959L280.143 194.777C280.119 194.842 280.084 194.896 280.036 194.938C279.995 194.979 279.929 195 279.84 195H279.269Z" fill="#222222"/>
<path d="M274.749 195C274.689 195 274.639 194.979 274.597 194.938C274.555 194.896 274.535 194.845 274.535 194.786V193.645H271.708C271.643 193.645 271.589 193.624 271.548 193.582C271.512 193.541 271.494 193.49 271.494 193.431V192.824C271.494 192.789 271.5 192.747 271.512 192.7C271.53 192.646 271.556 192.598 271.592 192.557L274.222 188.91C274.3 188.809 274.41 188.758 274.552 188.758H275.524C275.584 188.758 275.634 188.779 275.676 188.821C275.717 188.862 275.738 188.913 275.738 188.972V192.593H276.532C276.603 192.593 276.657 192.613 276.692 192.655C276.734 192.691 276.755 192.741 276.755 192.807V193.431C276.755 193.49 276.734 193.541 276.692 193.582C276.651 193.624 276.6 193.645 276.541 193.645H275.738V194.786C275.738 194.845 275.717 194.896 275.676 194.938C275.634 194.979 275.584 195 275.524 195H274.749ZM272.733 192.628H274.561V190.051L272.733 192.628ZM279.269 195C279.186 195 279.124 194.979 279.082 194.938C279.04 194.896 279.005 194.842 278.975 194.777L277.7 190.64C277.694 190.61 277.691 190.583 277.691 190.56C277.691 190.506 277.709 190.461 277.745 190.426C277.786 190.384 277.831 190.363 277.878 190.363H278.538C278.609 190.363 278.666 190.384 278.708 190.426C278.749 190.461 278.773 190.497 278.779 190.533L279.653 193.484L280.58 190.56C280.592 190.518 280.619 190.476 280.66 190.435C280.702 190.387 280.764 190.363 280.848 190.363H281.293C281.377 190.363 281.439 190.387 281.481 190.435C281.522 190.476 281.549 190.518 281.561 190.56L282.488 193.484L283.362 190.533C283.368 190.497 283.389 190.461 283.424 190.426C283.466 190.384 283.522 190.363 283.594 190.363H284.254C284.307 190.363 284.352 190.384 284.387 190.426C284.429 190.461 284.45 190.506 284.45 190.56C284.45 190.583 284.444 190.61 284.432 190.64L283.157 194.777C283.139 194.842 283.106 194.896 283.059 194.938C283.017 194.979 282.955 195 282.872 195H282.292C282.209 195 282.143 194.979 282.096 194.938C282.048 194.896 282.016 194.842 281.998 194.777L281.07 191.959L280.143 194.777C280.119 194.842 280.084 194.896 280.036 194.938C279.995 194.979 279.929 195 279.84 195H279.269Z" fill="white" fill-opacity="0.2"/>
<path opacity="0.5" d="M63.5068 139.494L31.0769 114.912L0 136.098V207H303V90.6695L278.138 72.8378L218.141 133.55L195.008 109.35L158.064 153.08L110.5 61L63.5068 139.494Z" fill="#3FBC69"/>
</svg>
