<svg width="260" height="198" viewBox="0 0 260 198" fill="none" xmlns="http://www.w3.org/2000/svg">
<g opacity="0.5">
<path d="M6 1L6.00001 185" stroke="#222222" stroke-width="1.48609" stroke-linecap="round"/>
<path d="M6 1L6.00001 185" stroke="white" stroke-opacity="0.9" stroke-width="1.48609" stroke-linecap="round"/>
</g>
<path d="M2.54419 195C2.4788 195 2.42531 194.979 2.38369 194.938C2.34803 194.896 2.3302 194.845 2.3302 194.786V190.167L0.974885 191.21C0.921385 191.246 0.867886 191.261 0.814387 191.255C0.760888 191.243 0.713333 191.21 0.671723 191.157L0.297229 190.675C0.261563 190.622 0.246702 190.566 0.252646 190.506C0.264535 190.447 0.297229 190.399 0.350728 190.363L2.34803 188.821C2.38369 188.791 2.41936 188.773 2.45503 188.767C2.49069 188.761 2.52933 188.758 2.57094 188.758H3.3556C3.41504 188.758 3.46557 188.779 3.50718 188.821C3.54879 188.862 3.56959 188.913 3.56959 188.972V194.786C3.56959 194.845 3.54879 194.896 3.50718 194.938C3.46557 194.979 3.41504 195 3.3556 195H2.54419ZM6.42785 195C6.34463 195 6.28221 194.979 6.2406 194.938C6.19899 194.896 6.16332 194.842 6.1336 194.777L4.85854 190.64C4.8526 190.61 4.84962 190.583 4.84962 190.56C4.84962 190.506 4.86746 190.461 4.90312 190.426C4.94473 190.384 4.98932 190.363 5.03687 190.363H5.69669C5.76802 190.363 5.8245 190.384 5.86611 190.426C5.90772 190.461 5.93149 190.497 5.93744 190.533L6.81126 193.484L7.73858 190.56C7.75046 190.518 7.77721 190.476 7.81882 190.435C7.86044 190.387 7.92285 190.363 8.00607 190.363H8.4519C8.53512 190.363 8.59753 190.387 8.63914 190.435C8.68076 190.476 8.7075 190.518 8.71939 190.56L9.64671 193.484L10.5205 190.533C10.5265 190.497 10.5473 190.461 10.5829 190.426C10.6246 190.384 10.681 190.363 10.7524 190.363H11.4122C11.4657 190.363 11.5103 190.384 11.5459 190.426C11.5875 190.461 11.6083 190.506 11.6083 190.56C11.6083 190.583 11.6024 190.61 11.5905 190.64L10.3155 194.777C10.2976 194.842 10.2649 194.896 10.2174 194.938C10.1758 194.979 10.1133 195 10.0301 195H9.45055C9.36733 195 9.30194 194.979 9.25438 194.938C9.20683 194.896 9.17414 194.842 9.1563 194.777L8.22898 191.959L7.30167 194.777C7.27789 194.842 7.24222 194.896 7.19467 194.938C7.15306 194.979 7.08767 195 6.9985 195H6.42785Z" fill="#222222"/>
<path d="M2.54419 195C2.4788 195 2.42531 194.979 2.38369 194.938C2.34803 194.896 2.3302 194.845 2.3302 194.786V190.167L0.974885 191.21C0.921385 191.246 0.867886 191.261 0.814387 191.255C0.760888 191.243 0.713333 191.21 0.671723 191.157L0.297229 190.675C0.261563 190.622 0.246702 190.566 0.252646 190.506C0.264535 190.447 0.297229 190.399 0.350728 190.363L2.34803 188.821C2.38369 188.791 2.41936 188.773 2.45503 188.767C2.49069 188.761 2.52933 188.758 2.57094 188.758H3.3556C3.41504 188.758 3.46557 188.779 3.50718 188.821C3.54879 188.862 3.56959 188.913 3.56959 188.972V194.786C3.56959 194.845 3.54879 194.896 3.50718 194.938C3.46557 194.979 3.41504 195 3.3556 195H2.54419ZM6.42785 195C6.34463 195 6.28221 194.979 6.2406 194.938C6.19899 194.896 6.16332 194.842 6.1336 194.777L4.85854 190.64C4.8526 190.61 4.84962 190.583 4.84962 190.56C4.84962 190.506 4.86746 190.461 4.90312 190.426C4.94473 190.384 4.98932 190.363 5.03687 190.363H5.69669C5.76802 190.363 5.8245 190.384 5.86611 190.426C5.90772 190.461 5.93149 190.497 5.93744 190.533L6.81126 193.484L7.73858 190.56C7.75046 190.518 7.77721 190.476 7.81882 190.435C7.86044 190.387 7.92285 190.363 8.00607 190.363H8.4519C8.53512 190.363 8.59753 190.387 8.63914 190.435C8.68076 190.476 8.7075 190.518 8.71939 190.56L9.64671 193.484L10.5205 190.533C10.5265 190.497 10.5473 190.461 10.5829 190.426C10.6246 190.384 10.681 190.363 10.7524 190.363H11.4122C11.4657 190.363 11.5103 190.384 11.5459 190.426C11.5875 190.461 11.6083 190.506 11.6083 190.56C11.6083 190.583 11.6024 190.61 11.5905 190.64L10.3155 194.777C10.2976 194.842 10.2649 194.896 10.2174 194.938C10.1758 194.979 10.1133 195 10.0301 195H9.45055C9.36733 195 9.30194 194.979 9.25438 194.938C9.20683 194.896 9.17414 194.842 9.1563 194.777L8.22898 191.959L7.30167 194.777C7.27789 194.842 7.24222 194.896 7.19467 194.938C7.15306 194.979 7.08767 195 6.9985 195H6.42785Z" fill="white" fill-opacity="0.2"/>
<g opacity="0.5">
<path d="M85 1L85 185" stroke="#222222" stroke-width="1.48609" stroke-linecap="round"/>
<path d="M85 1L85 185" stroke="white" stroke-opacity="0.9" stroke-width="1.48609" stroke-linecap="round"/>
</g>
<path d="M78.9898 195C78.9303 195 78.8798 194.979 78.8382 194.938C78.7966 194.896 78.7758 194.845 78.7758 194.786V194.331C78.7758 194.278 78.7877 194.215 78.8114 194.144C78.8412 194.067 78.9036 193.989 78.9987 193.912L80.4075 192.512C80.7998 192.203 81.1149 191.942 81.3527 191.728C81.5964 191.508 81.7717 191.309 81.8787 191.13C81.9917 190.946 82.0481 190.765 82.0481 190.586C82.0481 190.319 81.9738 190.102 81.8252 189.935C81.6826 189.769 81.4537 189.686 81.1387 189.686C80.9306 189.686 80.7552 189.73 80.6126 189.82C80.4699 189.903 80.357 190.016 80.2738 190.158C80.1965 190.301 80.143 190.459 80.1133 190.631C80.1014 190.708 80.0687 190.762 80.0152 190.791C79.9617 190.821 79.9082 190.836 79.8547 190.836H79.0611C79.0076 190.836 78.963 190.818 78.9274 190.782C78.8917 190.747 78.8739 190.705 78.8739 190.658C78.8798 190.402 78.9333 190.155 79.0344 189.918C79.1354 189.674 79.281 189.46 79.4713 189.276C79.6674 189.085 79.9052 188.934 80.1846 188.821C80.464 188.708 80.779 188.651 81.1297 188.651C81.6231 188.651 82.0303 188.735 82.3513 188.901C82.6782 189.068 82.922 189.293 83.0825 189.579C83.2489 189.864 83.3321 190.185 83.3321 190.542C83.3321 190.821 83.2786 191.08 83.1716 191.317C83.0646 191.549 82.9101 191.775 82.708 191.995C82.5059 192.209 82.2621 192.429 81.9768 192.655L80.7107 193.939H83.2519C83.3173 193.939 83.3678 193.96 83.4035 194.001C83.4451 194.037 83.4659 194.088 83.4659 194.153V194.786C83.4659 194.845 83.4451 194.896 83.4035 194.938C83.3678 194.979 83.3173 195 83.2519 195H78.9898ZM86.1213 195C86.0381 195 85.9756 194.979 85.934 194.938C85.8924 194.896 85.8567 194.842 85.827 194.777L84.552 190.64C84.546 190.61 84.543 190.583 84.543 190.56C84.543 190.506 84.5609 190.461 84.5965 190.426C84.6382 190.384 84.6827 190.363 84.7303 190.363H85.3901C85.4614 190.363 85.5179 190.384 85.5595 190.426C85.6011 190.461 85.6249 190.497 85.6309 190.533L86.5047 193.484L87.432 190.56C87.4439 190.518 87.4706 190.476 87.5122 190.435C87.5539 190.387 87.6163 190.363 87.6995 190.363H88.1453C88.2285 190.363 88.291 190.387 88.3326 190.435C88.3742 190.476 88.4009 190.518 88.4128 190.56L89.3401 193.484L90.214 190.533C90.2199 190.497 90.2407 190.461 90.2764 190.426C90.318 190.384 90.3745 190.363 90.4458 190.363H91.1056C91.1591 190.363 91.2037 190.384 91.2394 190.426C91.281 190.461 91.3018 190.506 91.3018 190.56C91.3018 190.583 91.2958 190.61 91.2839 190.64L90.0089 194.777C89.991 194.842 89.9583 194.896 89.9108 194.938C89.8692 194.979 89.8068 195 89.7235 195H89.144C89.0608 195 88.9954 194.979 88.9478 194.938C88.9003 194.896 88.8676 194.842 88.8497 194.777L87.9224 191.959L86.9951 194.777C86.9713 194.842 86.9356 194.896 86.8881 194.938C86.8465 194.979 86.7811 195 86.6919 195H86.1213Z" fill="#222222"/>
<path d="M78.9898 195C78.9303 195 78.8798 194.979 78.8382 194.938C78.7966 194.896 78.7758 194.845 78.7758 194.786V194.331C78.7758 194.278 78.7877 194.215 78.8114 194.144C78.8412 194.067 78.9036 193.989 78.9987 193.912L80.4075 192.512C80.7998 192.203 81.1149 191.942 81.3527 191.728C81.5964 191.508 81.7717 191.309 81.8787 191.13C81.9917 190.946 82.0481 190.765 82.0481 190.586C82.0481 190.319 81.9738 190.102 81.8252 189.935C81.6826 189.769 81.4537 189.686 81.1387 189.686C80.9306 189.686 80.7552 189.73 80.6126 189.82C80.4699 189.903 80.357 190.016 80.2738 190.158C80.1965 190.301 80.143 190.459 80.1133 190.631C80.1014 190.708 80.0687 190.762 80.0152 190.791C79.9617 190.821 79.9082 190.836 79.8547 190.836H79.0611C79.0076 190.836 78.963 190.818 78.9274 190.782C78.8917 190.747 78.8739 190.705 78.8739 190.658C78.8798 190.402 78.9333 190.155 79.0344 189.918C79.1354 189.674 79.281 189.46 79.4713 189.276C79.6674 189.085 79.9052 188.934 80.1846 188.821C80.464 188.708 80.779 188.651 81.1297 188.651C81.6231 188.651 82.0303 188.735 82.3513 188.901C82.6782 189.068 82.922 189.293 83.0825 189.579C83.2489 189.864 83.3321 190.185 83.3321 190.542C83.3321 190.821 83.2786 191.08 83.1716 191.317C83.0646 191.549 82.9101 191.775 82.708 191.995C82.5059 192.209 82.2621 192.429 81.9768 192.655L80.7107 193.939H83.2519C83.3173 193.939 83.3678 193.96 83.4035 194.001C83.4451 194.037 83.4659 194.088 83.4659 194.153V194.786C83.4659 194.845 83.4451 194.896 83.4035 194.938C83.3678 194.979 83.3173 195 83.2519 195H78.9898ZM86.1213 195C86.0381 195 85.9756 194.979 85.934 194.938C85.8924 194.896 85.8567 194.842 85.827 194.777L84.552 190.64C84.546 190.61 84.543 190.583 84.543 190.56C84.543 190.506 84.5609 190.461 84.5965 190.426C84.6382 190.384 84.6827 190.363 84.7303 190.363H85.3901C85.4614 190.363 85.5179 190.384 85.5595 190.426C85.6011 190.461 85.6249 190.497 85.6309 190.533L86.5047 193.484L87.432 190.56C87.4439 190.518 87.4706 190.476 87.5122 190.435C87.5539 190.387 87.6163 190.363 87.6995 190.363H88.1453C88.2285 190.363 88.291 190.387 88.3326 190.435C88.3742 190.476 88.4009 190.518 88.4128 190.56L89.3401 193.484L90.214 190.533C90.2199 190.497 90.2407 190.461 90.2764 190.426C90.318 190.384 90.3745 190.363 90.4458 190.363H91.1056C91.1591 190.363 91.2037 190.384 91.2394 190.426C91.281 190.461 91.3018 190.506 91.3018 190.56C91.3018 190.583 91.2958 190.61 91.2839 190.64L90.0089 194.777C89.991 194.842 89.9583 194.896 89.9108 194.938C89.8692 194.979 89.8068 195 89.7235 195H89.144C89.0608 195 88.9954 194.979 88.9478 194.938C88.9003 194.896 88.8676 194.842 88.8497 194.777L87.9224 191.959L86.9951 194.777C86.9713 194.842 86.9356 194.896 86.8881 194.938C86.8465 194.979 86.7811 195 86.6919 195H86.1213Z" fill="white" fill-opacity="0.2"/>
<g opacity="0.5">
<path d="M170 1L170 186" stroke="#222222" stroke-width="1.48609" stroke-linecap="round"/>
<path d="M170 1L170 186" stroke="white" stroke-opacity="0.9" stroke-width="1.48609" stroke-linecap="round"/>
</g>
<path d="M166.1 195.089C165.684 195.089 165.324 195.039 165.021 194.938C164.718 194.837 164.465 194.706 164.263 194.545C164.067 194.379 163.918 194.2 163.817 194.01C163.716 193.814 163.662 193.621 163.657 193.431C163.657 193.377 163.674 193.336 163.71 193.306C163.752 193.27 163.799 193.252 163.853 193.252H164.655C164.715 193.252 164.765 193.264 164.807 193.288C164.848 193.312 164.884 193.359 164.914 193.431C164.967 193.591 165.053 193.719 165.172 193.814C165.297 193.909 165.44 193.978 165.6 194.019C165.761 194.055 165.93 194.073 166.109 194.073C166.465 194.073 166.748 193.989 166.956 193.823C167.17 193.651 167.277 193.407 167.277 193.092C167.277 192.777 167.179 192.551 166.982 192.414C166.786 192.272 166.513 192.2 166.162 192.2H165.244C165.178 192.2 165.125 192.182 165.083 192.147C165.042 192.105 165.021 192.052 165.021 191.986V191.612C165.021 191.552 165.033 191.502 165.056 191.46C165.086 191.413 165.116 191.374 165.146 191.344L166.742 189.784H164.192C164.126 189.784 164.073 189.763 164.031 189.721C163.995 189.68 163.978 189.629 163.978 189.57V188.981C163.978 188.916 163.995 188.862 164.031 188.821C164.073 188.779 164.126 188.758 164.192 188.758H168.017C168.082 188.758 168.136 188.779 168.177 188.821C168.219 188.862 168.24 188.916 168.24 188.981V189.516C168.24 189.57 168.228 189.617 168.204 189.659C168.18 189.701 168.153 189.736 168.124 189.766L166.581 191.353L166.688 191.362C167.051 191.392 167.372 191.475 167.651 191.612C167.936 191.742 168.156 191.936 168.311 192.191C168.471 192.447 168.552 192.768 168.552 193.154C168.552 193.558 168.445 193.906 168.231 194.198C168.023 194.483 167.734 194.703 167.366 194.857C166.997 195.012 166.575 195.089 166.1 195.089ZM171.169 195C171.086 195 171.024 194.979 170.982 194.938C170.94 194.896 170.905 194.842 170.875 194.777L169.6 190.64C169.594 190.61 169.591 190.583 169.591 190.56C169.591 190.506 169.609 190.461 169.644 190.426C169.686 190.384 169.731 190.363 169.778 190.363H170.438C170.509 190.363 170.566 190.384 170.607 190.426C170.649 190.461 170.673 190.497 170.679 190.533L171.553 193.484L172.48 190.56C172.492 190.518 172.519 190.476 172.56 190.435C172.602 190.387 172.664 190.363 172.747 190.363H173.193C173.276 190.363 173.339 190.387 173.38 190.435C173.422 190.476 173.449 190.518 173.461 190.56L174.388 193.484L175.262 190.533C175.268 190.497 175.289 190.461 175.324 190.426C175.366 190.384 175.422 190.363 175.494 190.363H176.153C176.207 190.363 176.252 190.384 176.287 190.426C176.329 190.461 176.35 190.506 176.35 190.56C176.35 190.583 176.344 190.61 176.332 190.64L175.057 194.777C175.039 194.842 175.006 194.896 174.959 194.938C174.917 194.979 174.855 195 174.771 195H174.192C174.109 195 174.043 194.979 173.996 194.938C173.948 194.896 173.915 194.842 173.898 194.777L172.97 191.959L172.043 194.777C172.019 194.842 171.984 194.896 171.936 194.938C171.894 194.979 171.829 195 171.74 195H171.169Z" fill="#222222"/>
<path d="M166.1 195.089C165.684 195.089 165.324 195.039 165.021 194.938C164.718 194.837 164.465 194.706 164.263 194.545C164.067 194.379 163.918 194.2 163.817 194.01C163.716 193.814 163.662 193.621 163.657 193.431C163.657 193.377 163.674 193.336 163.71 193.306C163.752 193.27 163.799 193.252 163.853 193.252H164.655C164.715 193.252 164.765 193.264 164.807 193.288C164.848 193.312 164.884 193.359 164.914 193.431C164.967 193.591 165.053 193.719 165.172 193.814C165.297 193.909 165.44 193.978 165.6 194.019C165.761 194.055 165.93 194.073 166.109 194.073C166.465 194.073 166.748 193.989 166.956 193.823C167.17 193.651 167.277 193.407 167.277 193.092C167.277 192.777 167.179 192.551 166.982 192.414C166.786 192.272 166.513 192.2 166.162 192.2H165.244C165.178 192.2 165.125 192.182 165.083 192.147C165.042 192.105 165.021 192.052 165.021 191.986V191.612C165.021 191.552 165.033 191.502 165.056 191.46C165.086 191.413 165.116 191.374 165.146 191.344L166.742 189.784H164.192C164.126 189.784 164.073 189.763 164.031 189.721C163.995 189.68 163.978 189.629 163.978 189.57V188.981C163.978 188.916 163.995 188.862 164.031 188.821C164.073 188.779 164.126 188.758 164.192 188.758H168.017C168.082 188.758 168.136 188.779 168.177 188.821C168.219 188.862 168.24 188.916 168.24 188.981V189.516C168.24 189.57 168.228 189.617 168.204 189.659C168.18 189.701 168.153 189.736 168.124 189.766L166.581 191.353L166.688 191.362C167.051 191.392 167.372 191.475 167.651 191.612C167.936 191.742 168.156 191.936 168.311 192.191C168.471 192.447 168.552 192.768 168.552 193.154C168.552 193.558 168.445 193.906 168.231 194.198C168.023 194.483 167.734 194.703 167.366 194.857C166.997 195.012 166.575 195.089 166.1 195.089ZM171.169 195C171.086 195 171.024 194.979 170.982 194.938C170.94 194.896 170.905 194.842 170.875 194.777L169.6 190.64C169.594 190.61 169.591 190.583 169.591 190.56C169.591 190.506 169.609 190.461 169.644 190.426C169.686 190.384 169.731 190.363 169.778 190.363H170.438C170.509 190.363 170.566 190.384 170.607 190.426C170.649 190.461 170.673 190.497 170.679 190.533L171.553 193.484L172.48 190.56C172.492 190.518 172.519 190.476 172.56 190.435C172.602 190.387 172.664 190.363 172.747 190.363H173.193C173.276 190.363 173.339 190.387 173.38 190.435C173.422 190.476 173.449 190.518 173.461 190.56L174.388 193.484L175.262 190.533C175.268 190.497 175.289 190.461 175.324 190.426C175.366 190.384 175.422 190.363 175.494 190.363H176.153C176.207 190.363 176.252 190.384 176.287 190.426C176.329 190.461 176.35 190.506 176.35 190.56C176.35 190.583 176.344 190.61 176.332 190.64L175.057 194.777C175.039 194.842 175.006 194.896 174.959 194.938C174.917 194.979 174.855 195 174.771 195H174.192C174.109 195 174.043 194.979 173.996 194.938C173.948 194.896 173.915 194.842 173.898 194.777L172.97 191.959L172.043 194.777C172.019 194.842 171.984 194.896 171.936 194.938C171.894 194.979 171.829 195 171.74 195H171.169Z" fill="white" fill-opacity="0.2"/>
<g opacity="0.5">
<path d="M253 1L253 187" stroke="#222222" stroke-width="1.48609" stroke-linecap="round"/>
<path d="M253 1L253 187" stroke="white" stroke-opacity="0.9" stroke-width="1.48609" stroke-linecap="round"/>
</g>
<path d="M249.749 195C249.689 195 249.639 194.979 249.597 194.938C249.555 194.896 249.535 194.845 249.535 194.786V193.645H246.708C246.643 193.645 246.589 193.624 246.548 193.582C246.512 193.541 246.494 193.49 246.494 193.431V192.824C246.494 192.789 246.5 192.747 246.512 192.7C246.53 192.646 246.556 192.598 246.592 192.557L249.222 188.91C249.3 188.809 249.41 188.758 249.552 188.758H250.524C250.584 188.758 250.634 188.779 250.676 188.821C250.717 188.862 250.738 188.913 250.738 188.972V192.593H251.532C251.603 192.593 251.657 192.613 251.692 192.655C251.734 192.691 251.755 192.741 251.755 192.807V193.431C251.755 193.49 251.734 193.541 251.692 193.582C251.651 193.624 251.6 193.645 251.541 193.645H250.738V194.786C250.738 194.845 250.717 194.896 250.676 194.938C250.634 194.979 250.584 195 250.524 195H249.749ZM247.733 192.628H249.561V190.051L247.733 192.628ZM254.269 195C254.186 195 254.124 194.979 254.082 194.938C254.04 194.896 254.005 194.842 253.975 194.777L252.7 190.64C252.694 190.61 252.691 190.583 252.691 190.56C252.691 190.506 252.709 190.461 252.745 190.426C252.786 190.384 252.831 190.363 252.878 190.363H253.538C253.609 190.363 253.666 190.384 253.708 190.426C253.749 190.461 253.773 190.497 253.779 190.533L254.653 193.484L255.58 190.56C255.592 190.518 255.619 190.476 255.66 190.435C255.702 190.387 255.764 190.363 255.848 190.363H256.293C256.377 190.363 256.439 190.387 256.481 190.435C256.522 190.476 256.549 190.518 256.561 190.56L257.488 193.484L258.362 190.533C258.368 190.497 258.389 190.461 258.424 190.426C258.466 190.384 258.522 190.363 258.594 190.363H259.254C259.307 190.363 259.352 190.384 259.387 190.426C259.429 190.461 259.45 190.506 259.45 190.56C259.45 190.583 259.444 190.61 259.432 190.64L258.157 194.777C258.139 194.842 258.106 194.896 258.059 194.938C258.017 194.979 257.955 195 257.872 195H257.292C257.209 195 257.143 194.979 257.096 194.938C257.048 194.896 257.016 194.842 256.998 194.777L256.07 191.959L255.143 194.777C255.119 194.842 255.084 194.896 255.036 194.938C254.995 194.979 254.929 195 254.84 195H254.269Z" fill="#222222"/>
<path d="M249.749 195C249.689 195 249.639 194.979 249.597 194.938C249.555 194.896 249.535 194.845 249.535 194.786V193.645H246.708C246.643 193.645 246.589 193.624 246.548 193.582C246.512 193.541 246.494 193.49 246.494 193.431V192.824C246.494 192.789 246.5 192.747 246.512 192.7C246.53 192.646 246.556 192.598 246.592 192.557L249.222 188.91C249.3 188.809 249.41 188.758 249.552 188.758H250.524C250.584 188.758 250.634 188.779 250.676 188.821C250.717 188.862 250.738 188.913 250.738 188.972V192.593H251.532C251.603 192.593 251.657 192.613 251.692 192.655C251.734 192.691 251.755 192.741 251.755 192.807V193.431C251.755 193.49 251.734 193.541 251.692 193.582C251.651 193.624 251.6 193.645 251.541 193.645H250.738V194.786C250.738 194.845 250.717 194.896 250.676 194.938C250.634 194.979 250.584 195 250.524 195H249.749ZM247.733 192.628H249.561V190.051L247.733 192.628ZM254.269 195C254.186 195 254.124 194.979 254.082 194.938C254.04 194.896 254.005 194.842 253.975 194.777L252.7 190.64C252.694 190.61 252.691 190.583 252.691 190.56C252.691 190.506 252.709 190.461 252.745 190.426C252.786 190.384 252.831 190.363 252.878 190.363H253.538C253.609 190.363 253.666 190.384 253.708 190.426C253.749 190.461 253.773 190.497 253.779 190.533L254.653 193.484L255.58 190.56C255.592 190.518 255.619 190.476 255.66 190.435C255.702 190.387 255.764 190.363 255.848 190.363H256.293C256.377 190.363 256.439 190.387 256.481 190.435C256.522 190.476 256.549 190.518 256.561 190.56L257.488 193.484L258.362 190.533C258.368 190.497 258.389 190.461 258.424 190.426C258.466 190.384 258.522 190.363 258.594 190.363H259.254C259.307 190.363 259.352 190.384 259.387 190.426C259.429 190.461 259.45 190.506 259.45 190.56C259.45 190.583 259.444 190.61 259.432 190.64L258.157 194.777C258.139 194.842 258.106 194.896 258.059 194.938C258.017 194.979 257.955 195 257.872 195H257.292C257.209 195 257.143 194.979 257.096 194.938C257.048 194.896 257.016 194.842 256.998 194.777L256.07 191.959L255.143 194.777C255.119 194.842 255.084 194.896 255.036 194.938C254.995 194.979 254.929 195 254.84 195H254.269Z" fill="white" fill-opacity="0.2"/>
</svg>
