<svg width="68" height="68" viewBox="0 0 68 68" fill="none" xmlns="http://www.w3.org/2000/svg">
<path d="M34 0C15.5686 0 0 15.5686 0 34C0 52.4314 15.5686 68 34 68C52.4314 68 68 52.4314 68 34C68 15.5686 52.4314 0 34 0ZM34 17C39.8718 17 44.2 21.3248 44.2 27.2C44.2 33.0752 39.8718 37.4 34 37.4C28.1316 37.4 23.8 33.0752 23.8 27.2C23.8 21.3248 28.1316 17 34 17ZM16.6396 50.2248C19.6894 45.7368 24.7758 42.7448 30.6 42.7448H37.4C43.2276 42.7448 48.3106 45.7368 51.3604 50.2248C47.0152 54.876 40.851 57.8 34 57.8C27.149 57.8 20.9848 54.876 16.6396 50.2248Z" fill="#244B8A"/>
</svg>
