<svg width="23" height="24" viewBox="0 0 23 24" fill="none" xmlns="http://www.w3.org/2000/svg">
<path opacity="0.5" d="M21.0833 10H1.91663V19C1.91663 19.7956 2.21953 20.5587 2.75869 21.1213C3.29786 21.6839 4.02913 22 4.79163 22H18.2083C18.9708 22 19.7021 21.6839 20.2412 21.1213C20.7804 20.5587 21.0833 19.7956 21.0833 19V10ZM6.70829 8C6.45413 8 6.21037 7.89464 6.03065 7.70711C5.85093 7.51957 5.74996 7.26522 5.74996 7V3C5.74996 2.73478 5.85093 2.48043 6.03065 2.29289C6.21037 2.10536 6.45413 2 6.70829 2C6.96246 2 7.20621 2.10536 7.38594 2.29289C7.56566 2.48043 7.66663 2.73478 7.66663 3V7C7.66663 7.26522 7.56566 7.51957 7.38594 7.70711C7.20621 7.89464 6.96246 8 6.70829 8ZM16.2916 8C16.0375 8 15.7937 7.89464 15.614 7.70711C15.4343 7.51957 15.3333 7.26522 15.3333 7V3C15.3333 2.73478 15.4343 2.48043 15.614 2.29289C15.7937 2.10536 16.0375 2 16.2916 2C16.5458 2 16.7895 2.10536 16.9693 2.29289C17.149 2.48043 17.25 2.73478 17.25 3V7C17.25 7.26522 17.149 7.51957 16.9693 7.70711C16.7895 7.89464 16.5458 8 16.2916 8Z" fill="#878787"/>
<path d="M18.2083 4H17.25V7C17.25 7.26522 17.149 7.51957 16.9693 7.70711C16.7895 7.89464 16.5458 8 16.2916 8C16.0375 8 15.7937 7.89464 15.614 7.70711C15.4343 7.51957 15.3333 7.26522 15.3333 7V4H7.66663V7C7.66663 7.26522 7.56566 7.51957 7.38594 7.70711C7.20621 7.89464 6.96246 8 6.70829 8C6.45413 8 6.21037 7.89464 6.03065 7.70711C5.85093 7.51957 5.74996 7.26522 5.74996 7V4H4.79163C4.02913 4 3.29786 4.31607 2.75869 4.87868C2.21953 5.44129 1.91663 6.20435 1.91663 7V10H21.0833V7C21.0833 6.20435 20.7804 5.44129 20.2412 4.87868C19.7021 4.31607 18.9708 4 18.2083 4Z" fill="#244B8A"/>
<path d="M5.24738 17L4.2069 13.3636H5.04674L5.64866 15.8903H5.67884L6.34291 13.3636H7.06201L7.7243 15.8956H7.75626L8.35818 13.3636H9.19802L8.15754 17H7.40825L6.71578 14.6225H6.68737L5.99667 17H5.24738ZM10.5452 17.0533C10.2647 17.0533 10.0232 16.9964 9.8208 16.8828C9.61957 16.768 9.4645 16.6058 9.3556 16.3963C9.2467 16.1856 9.19225 15.9364 9.19225 15.6488C9.19225 15.3683 9.2467 15.122 9.3556 14.9102C9.4645 14.6983 9.61779 14.5331 9.81547 14.4148C10.0143 14.2964 10.2475 14.2372 10.515 14.2372C10.695 14.2372 10.8625 14.2662 11.0175 14.3242C11.1738 14.381 11.3099 14.4669 11.4259 14.5817C11.5431 14.6965 11.6342 14.8409 11.6994 15.0149C11.7645 15.1877 11.797 15.3902 11.797 15.6222V15.8299H9.4941V15.3612H11.085C11.085 15.2522 11.0613 15.1558 11.014 15.0717C10.9666 14.9877 10.9009 14.922 10.8169 14.8746C10.734 14.8261 10.6376 14.8018 10.5275 14.8018C10.4127 14.8018 10.3109 14.8285 10.2221 14.8817C10.1345 14.9338 10.0658 15.0043 10.0161 15.093C9.9664 15.1806 9.94095 15.2783 9.93976 15.386V15.8317C9.93976 15.9666 9.96462 16.0832 10.0143 16.1815C10.0652 16.2797 10.1369 16.3555 10.2292 16.4087C10.3215 16.462 10.431 16.4886 10.5577 16.4886C10.6417 16.4886 10.7186 16.4768 10.7885 16.4531C10.8583 16.4295 10.9181 16.3939 10.9678 16.3466C11.0175 16.2992 11.0554 16.2412 11.0815 16.1726L11.781 16.2188C11.7455 16.3868 11.6727 16.5336 11.5626 16.6591C11.4537 16.7834 11.3129 16.8804 11.14 16.9503C10.9684 17.0189 10.7701 17.0533 10.5452 17.0533ZM13.5335 17.0533C13.253 17.0533 13.0115 16.9964 12.8091 16.8828C12.6079 16.768 12.4528 16.6058 12.3439 16.3963C12.235 16.1856 12.1805 15.9364 12.1805 15.6488C12.1805 15.3683 12.235 15.122 12.3439 14.9102C12.4528 14.6983 12.6061 14.5331 12.8038 14.4148C13.0026 14.2964 13.2358 14.2372 13.5033 14.2372C13.6833 14.2372 13.8507 14.2662 14.0058 14.3242C14.1621 14.381 14.2982 14.4669 14.4142 14.5817C14.5314 14.6965 14.6225 14.8409 14.6876 15.0149C14.7527 15.1877 14.7853 15.3902 14.7853 15.6222V15.8299H12.4824V15.3612H14.0733C14.0733 15.2522 14.0496 15.1558 14.0023 15.0717C13.9549 14.9877 13.8892 14.922 13.8052 14.8746C13.7223 14.8261 13.6258 14.8018 13.5158 14.8018C13.4009 14.8018 13.2991 14.8285 13.2104 14.8817C13.1228 14.9338 13.0541 15.0043 13.0044 15.093C12.9547 15.1806 12.9292 15.2783 12.928 15.386V15.8317C12.928 15.9666 12.9529 16.0832 13.0026 16.1815C13.0535 16.2797 13.1251 16.3555 13.2175 16.4087C13.3098 16.462 13.4193 16.4886 13.5459 16.4886C13.63 16.4886 13.7069 16.4768 13.7768 16.4531C13.8466 16.4295 13.9064 16.3939 13.9561 16.3466C14.0058 16.2992 14.0437 16.2412 14.0697 16.1726L14.7693 16.2188C14.7338 16.3868 14.661 16.5336 14.5509 16.6591C14.442 16.7834 14.3012 16.8804 14.1283 16.9503C13.9567 17.0189 13.7584 17.0533 13.5335 17.0533ZM15.9643 16.2152L15.966 15.3079H16.0761L16.9497 14.2727H17.818L16.6443 15.6435H16.465L15.9643 16.2152ZM15.2789 17V13.3636H16.0353V17H15.2789ZM16.9834 17L16.1809 15.8121L16.6851 15.2777L17.8695 17H16.9834Z" fill="#244B8A"/>
</svg>
